<?xml version="1.0" encoding="UTF-8" ?>
<!DOCTYPE svg PUBLIC "-//W3C//DTD SVG 1.1//EN" "http://www.w3.org/Graphics/SVG/1.1/DTD/svg11.dtd">
<svg width="400pt" height="88pt" viewBox="0 0 400 88" version="1.1" xmlns="http://www.w3.org/2000/svg">
<g id="#000025ec">
<path fill="#000025" opacity="0.93" d=" M 142.58 11.08 C 200.07 11.22 257.56 11.14 315.05 11.12 C 316.22 10.95 318.21 11.39 317.89 12.99 C 317.83 33.67 317.83 54.35 317.89 75.03 C 318.20 76.62 316.21 77.04 315.05 76.88 C 257.56 76.86 200.07 76.78 142.58 76.92 C 142.02 76.60 140.89 75.97 140.33 75.65 C 132.31 65.28 123.88 55.22 115.88 44.85 C 115.90 44.38 115.93 43.44 115.94 42.98 C 124.02 32.73 132.32 22.65 140.33 12.35 C 140.89 12.03 142.02 11.40 142.58 11.08 M 158.29 30.64 C 153.70 31.92 152.13 38.42 155.13 41.93 C 157.73 45.73 162.86 45.82 166.06 48.91 C 166.04 49.62 166.01 51.04 166.00 51.76 C 165.21 52.47 164.44 53.20 163.66 53.92 C 160.01 54.24 156.46 53.37 153.15 51.88 C 153.10 53.51 153.07 55.15 153.03 56.79 C 157.48 58.09 162.44 58.96 166.81 56.92 C 171.80 54.88 172.41 46.96 167.79 44.16 C 164.70 42.25 161.06 41.29 158.30 38.81 C 158.40 37.35 158.27 35.50 159.83 34.72 C 162.77 33.08 166.20 34.67 168.95 36.00 C 169.56 34.52 170.16 33.04 170.77 31.55 C 166.77 30.35 162.36 28.97 158.29 30.64 M 174.28 30.52 C 174.52 31.87 173.74 33.76 175.17 34.59 C 177.56 34.81 179.96 34.67 182.36 34.66 C 182.36 42.31 182.36 49.96 182.36 57.61 C 184.12 57.59 185.88 57.57 187.64 57.53 C 187.56 49.90 187.71 42.26 187.53 34.63 C 189.99 34.65 192.45 34.67 194.91 34.67 C 194.95 33.26 194.99 31.85 195.03 30.44 C 188.11 30.58 181.19 30.44 174.28 30.52 M 217.70 30.48 C 217.56 36.49 217.97 42.52 217.52 48.52 C 217.44 50.99 215.50 52.58 213.68 53.93 C 212.28 53.92 210.88 53.91 209.48 53.93 C 207.89 53.10 205.74 52.08 205.77 49.96 C 205.59 43.47 205.81 36.97 205.70 30.48 C 203.91 30.48 202.13 30.48 200.34 30.48 C 200.32 36.00 200.31 41.53 200.30 47.06 C 200.10 51.14 202.24 55.60 206.17 57.18 C 209.49 58.43 213.27 58.46 216.61 57.23 C 219.78 55.84 222.15 52.59 222.02 49.06 C 222.16 42.86 222.05 36.66 222.06 30.46 C 220.61 30.47 219.16 30.48 217.70 30.48 M 275.97 33.04 C 271.78 37.73 271.22 44.70 273.18 50.49 C 275.72 57.88 285.10 59.99 291.59 56.71 C 298.61 52.63 299.74 42.40 296.02 35.73 C 292.31 28.62 281.64 28.12 275.97 33.04 M 230.32 57.54 C 234.92 57.45 239.61 58.03 244.15 57.12 C 254.18 54.23 256.29 38.94 248.10 32.90 C 243.12 28.81 236.26 31.11 230.41 30.44 C 230.22 39.47 230.39 48.50 230.32 57.54 M 260.21 30.48 C 260.22 39.53 260.19 48.57 260.23 57.62 C 261.83 57.60 263.43 57.58 265.03 57.56 C 265.10 48.54 264.91 39.53 265.05 30.51 C 263.43 30.50 261.82 30.49 260.21 30.48 Z" />
<path fill="#000025" opacity="0.93" d=" M 66.85 29.75 C 73.39 24.37 82.93 25.40 90.01 29.14 C 90.00 31.15 90.00 33.15 90.01 35.16 C 86.15 31.86 81.20 29.23 75.95 30.17 C 70.85 30.72 67.16 35.32 66.42 40.19 C 65.24 46.37 66.26 54.36 72.37 57.64 C 78.31 60.72 85.45 58.20 90.02 53.85 C 90.00 55.82 90.00 57.79 89.99 59.76 C 84.27 62.73 77.39 64.16 71.17 61.88 C 65.64 60.06 62.09 54.60 61.34 49.00 C 60.32 42.28 61.38 34.39 66.85 29.75 Z" />
<path fill="#000025" opacity="0.93" d=" M 27.00 27.00 C 28.67 27.00 30.33 27.00 32.00 27.00 C 32.06 34.71 31.90 42.41 32.06 50.12 C 32.06 53.33 33.37 56.99 36.58 58.28 C 39.86 59.46 44.15 59.36 46.70 56.68 C 48.86 54.36 48.93 50.99 49.00 48.01 C 49.02 41.01 48.98 34.01 49.00 27.00 C 50.67 27.00 52.33 27.00 54.00 27.00 C 53.96 34.35 54.09 41.70 53.95 49.05 C 53.87 53.39 52.78 58.34 48.83 60.79 C 41.81 65.22 29.47 63.24 27.62 54.02 C 26.29 45.10 27.32 35.99 27.00 27.00 Z" />
<path fill="#000025" opacity="0.93" d=" M 235.67 34.12 C 239.83 34.32 245.15 34.70 247.14 39.06 C 247.98 42.25 247.96 45.77 247.13 48.96 C 245.02 53.11 239.82 53.67 235.67 53.98 C 235.66 47.36 235.66 40.74 235.67 34.12 Z" />
<path fill="#000025" opacity="0.93" d=" M 279.11 36.93 C 280.98 34.41 284.30 33.91 287.23 33.97 C 289.14 35.33 291.72 36.48 292.20 39.05 C 292.78 42.31 292.81 45.71 292.20 48.96 C 291.69 51.51 289.14 52.67 287.24 54.03 C 283.16 54.57 278.39 52.41 277.75 47.99 C 277.52 44.33 276.87 40.12 279.11 36.93 Z" />
</g>
</svg>
