<?xml version="1.0" encoding="UTF-8" ?>
<!DOCTYPE svg PUBLIC "-//W3C//DTD SVG 1.1//EN" "http://www.w3.org/Graphics/SVG/1.1/DTD/svg11.dtd">
<svg width="720pt" height="720pt" viewBox="0 0 720 720" version="1.1" xmlns="http://www.w3.org/2000/svg">
<g id="#050561fe">
<path fill="#050561" opacity="1.00" d=" M 303.06 7.95 C 306.81 6.84 310.69 6.26 314.59 6.03 C 311.27 12.17 313.16 19.15 313.69 25.70 C 314.09 28.66 314.23 31.78 315.59 34.50 C 317.04 37.31 322.13 36.06 322.10 32.87 C 322.22 28.66 321.37 24.50 320.84 20.34 C 319.57 19.57 318.31 18.80 317.05 18.04 C 319.20 17.33 321.36 16.66 323.53 16.03 C 324.17 16.79 324.82 17.55 325.47 18.32 C 327.86 17.21 330.25 15.79 332.95 15.68 C 334.96 15.99 336.96 17.32 337.61 19.32 C 338.65 22.59 338.57 26.10 339.60 29.37 C 340.28 31.40 341.79 32.99 343.00 34.72 C 339.43 35.36 335.82 35.79 332.20 35.96 C 335.07 30.69 335.35 23.85 331.87 18.80 C 329.39 18.15 326.47 19.67 325.98 22.25 C 325.21 27.34 326.94 32.45 329.95 36.53 C 322.66 36.87 315.44 38.02 308.26 39.26 C 309.47 37.06 311.10 34.79 310.62 32.13 C 309.92 26.47 308.60 20.90 307.80 15.24 C 307.58 12.10 305.15 9.99 303.06 7.95 Z" />
<path fill="#050561" opacity="1.00" d=" M 413.06 6.32 C 414.35 6.33 415.64 6.33 416.94 6.33 C 417.17 7.76 417.47 9.18 417.54 10.63 C 416.79 12.13 414.45 13.61 413.30 11.71 C 411.64 10.34 413.02 8.09 413.06 6.32 Z" />
<path fill="#050561" opacity="1.00" d=" M 348.81 14.67 C 353.31 12.86 358.28 13.69 362.99 13.78 C 362.07 15.26 360.98 16.67 360.40 18.32 C 359.66 21.15 359.77 24.13 358.92 26.93 C 356.21 29.90 352.06 30.82 348.52 32.42 C 348.44 32.95 348.30 34.02 348.23 34.55 C 352.35 35.39 356.58 35.89 360.52 37.42 C 362.12 38.06 363.96 39.24 363.86 41.21 C 363.81 44.30 361.80 46.86 360.38 49.46 C 369.31 49.48 378.27 49.19 387.18 50.01 C 397.19 50.91 407.27 51.53 417.09 53.76 C 423.25 55.15 429.50 56.11 435.69 57.35 C 440.87 58.38 445.88 60.11 450.90 61.71 C 466.10 66.24 481.53 70.68 495.49 78.39 C 502.26 82.07 509.59 84.65 516.15 88.74 C 522.54 92.67 528.76 96.85 535.09 100.88 C 541.35 104.85 547.08 109.56 552.99 114.02 C 561.67 120.58 569.44 128.21 577.50 135.50 C 592.82 150.26 606.86 166.34 619.73 183.28 C 622.71 187.04 625.46 190.97 627.95 195.07 C 631.49 200.87 635.46 206.41 638.64 212.43 C 642.98 220.69 647.93 228.63 651.75 237.16 C 662.92 263.14 673.28 289.80 677.93 317.83 C 680.17 331.11 682.27 344.46 682.81 357.94 C 683.80 375.77 684.30 393.66 683.27 411.51 C 682.41 423.85 680.86 436.13 679.08 448.37 C 677.69 457.36 676.42 466.41 673.81 475.15 C 670.41 486.49 666.91 497.82 662.85 508.96 C 660.80 514.63 657.97 519.98 655.77 525.60 C 651.36 536.99 645.63 547.81 639.47 558.33 C 634.53 566.97 629.54 575.64 623.59 583.64 C 621.17 586.87 618.77 590.12 616.45 593.43 C 610.36 602.21 603.02 610.00 596.00 618.02 C 586.84 627.85 577.85 637.95 567.29 646.33 C 555.96 656.12 544.03 665.22 531.51 673.43 C 523.23 678.60 514.64 683.25 506.16 688.07 C 498.75 692.32 490.62 695.07 482.93 698.74 C 474.03 702.97 464.48 705.46 455.09 708.30 C 445.23 711.21 435.40 714.34 425.21 715.86 C 414.91 717.68 404.43 718.11 394.15 720.00 L 348.68 720.00 C 329.12 718.48 309.46 716.36 290.61 710.66 C 272.16 706.31 254.48 699.34 237.20 691.65 C 231.24 688.86 225.50 685.62 219.95 682.11 C 223.41 683.59 226.81 685.23 230.18 686.93 C 237.88 690.85 246.02 693.77 253.93 697.21 C 262.49 700.87 271.45 703.45 280.46 705.74 C 287.60 707.64 294.64 710.07 302.02 710.92 C 313.94 712.35 325.83 714.21 337.86 714.68 C 350.22 715.88 362.64 715.30 375.03 715.39 C 382.75 715.44 390.34 713.93 397.98 713.12 C 412.17 711.64 426.36 709.31 439.91 704.72 C 450.85 701.28 461.53 697.08 472.25 693.00 C 482.12 688.62 491.77 683.68 501.00 678.06 C 509.49 672.96 518.17 668.09 526.01 661.99 C 533.05 656.37 540.65 651.43 547.03 645.02 C 564.47 629.43 581.03 612.67 594.75 593.67 C 600.15 586.38 605.76 579.22 610.28 571.33 C 616.42 560.72 622.89 550.24 627.87 539.01 C 634.44 524.82 639.37 509.97 644.20 495.13 C 649.26 478.55 652.47 461.45 654.72 444.27 C 655.36 439.49 655.49 434.66 655.39 429.84 C 644.67 428.26 633.90 427.13 623.10 426.42 C 613.82 425.85 604.60 424.54 595.31 424.21 C 594.68 434.18 595.00 444.19 593.98 454.14 C 593.14 462.49 592.33 470.87 590.83 479.14 C 588.34 491.72 586.19 504.44 581.64 516.49 C 576.98 531.16 570.50 545.13 563.91 559.01 C 560.14 566.64 555.24 573.62 551.00 580.98 C 560.38 590.57 570.52 599.51 578.77 610.14 C 568.74 601.80 559.36 592.54 548.15 585.76 C 541.70 593.79 536.16 602.54 529.19 610.16 C 510.37 632.78 487.92 652.34 463.11 668.16 C 458.75 670.89 454.23 673.37 449.64 675.68 C 439.46 680.77 429.28 686.03 418.41 689.51 C 416.24 690.32 413.84 690.88 412.09 692.50 C 411.42 697.69 412.64 702.90 412.76 708.10 C 410.99 703.27 409.71 698.28 408.61 693.26 C 402.30 694.59 396.05 696.20 389.88 698.07 C 375.95 702.23 361.34 703.07 346.92 704.11 C 340.79 704.51 334.66 704.46 328.53 704.52 C 327.24 707.12 325.94 709.73 324.64 712.34 C 324.84 709.84 325.04 707.36 325.24 704.88 C 308.65 704.38 291.99 702.73 275.90 698.49 C 268.24 696.65 260.38 695.50 252.94 692.83 C 245.68 690.21 238.43 687.60 231.30 684.67 C 221.56 680.66 212.49 675.25 202.92 670.89 C 195.21 667.21 187.02 664.17 180.38 658.64 C 172.73 652.63 167.23 643.71 165.98 634.01 C 164.30 619.37 164.36 603.73 171.42 590.38 C 174.65 584.45 177.93 578.51 180.02 572.06 C 174.24 581.24 169.87 591.40 162.60 599.58 C 159.30 603.30 155.76 606.98 151.30 609.30 C 145.91 612.10 139.05 612.33 133.74 609.19 C 124.02 602.85 117.26 592.78 112.80 582.23 C 117.76 590.02 123.00 598.10 131.05 603.04 C 135.55 606.03 141.34 606.58 146.50 605.25 C 151.13 603.88 154.72 600.41 158.11 597.14 C 164.66 590.76 169.45 582.88 173.89 574.96 C 175.15 572.47 176.66 569.93 176.77 567.08 C 176.32 564.62 174.92 562.49 173.76 560.33 C 171.59 556.63 169.77 552.73 168.30 548.70 C 165.55 541.18 162.44 533.72 161.11 525.79 C 158.95 513.28 158.73 500.09 162.93 487.98 C 165.47 480.63 168.49 473.34 173.01 466.97 C 174.95 464.29 177.48 461.44 181.06 461.33 C 191.30 460.31 200.93 465.18 209.08 470.87 C 223.82 481.50 236.13 495.11 246.88 509.68 C 251.39 506.29 256.01 503.02 260.15 499.16 C 264.76 494.96 268.60 489.92 273.69 486.25 C 273.26 488.40 272.87 490.64 271.52 492.45 C 267.08 499.02 262.44 505.46 258.13 512.12 C 256.85 514.25 255.42 516.43 255.02 518.93 C 255.58 522.20 257.72 524.89 259.46 527.63 C 265.61 536.45 270.87 545.86 275.72 555.45 C 279.70 563.31 282.73 571.65 284.85 580.21 C 287.02 588.36 287.28 596.94 285.63 605.21 C 284.79 598.31 284.54 591.24 282.09 584.66 C 279.89 578.72 277.74 572.74 274.97 567.03 C 267.76 552.76 259.67 538.88 250.14 526.02 C 248.00 530.17 246.15 534.46 244.56 538.85 C 242.95 543.30 241.01 547.73 240.61 552.49 C 240.33 555.74 240.40 559.00 240.34 562.26 C 238.67 558.14 237.16 553.77 237.61 549.25 C 238.50 539.44 242.13 529.97 247.54 521.77 C 246.06 519.85 244.56 517.94 243.04 516.05 C 238.78 518.15 234.56 520.44 229.96 521.70 C 223.49 523.34 215.97 523.58 210.53 519.11 C 216.16 518.43 221.88 518.65 227.49 517.71 C 232.20 516.93 236.64 515.13 241.05 513.37 C 238.95 510.07 236.59 506.94 234.03 503.98 C 228.30 497.39 222.90 490.45 216.35 484.64 C 211.57 480.39 206.80 476.11 201.68 472.27 C 194.64 467.00 186.10 464.29 177.58 462.54 C 178.17 473.22 181.26 483.63 185.71 493.31 C 187.80 497.83 189.86 502.38 191.93 506.91 C 198.22 520.66 207.08 532.97 215.50 545.46 C 228.78 563.27 242.04 581.49 259.37 595.66 C 266.41 601.64 274.81 606.08 283.92 607.84 C 276.75 611.81 269.23 615.72 260.93 616.48 C 255.28 616.93 249.57 616.86 243.95 616.11 C 232.07 614.19 221.03 608.73 211.34 601.74 C 201.35 595.26 192.95 586.69 185.20 577.73 C 184.18 576.95 183.30 575.04 181.79 575.81 C 180.33 578.18 179.41 580.82 178.25 583.34 C 175.88 588.79 172.56 593.80 170.77 599.50 C 167.76 608.70 168.17 618.51 168.19 628.06 C 168.12 635.85 170.30 643.76 174.99 650.06 C 177.92 653.97 182.37 656.24 186.59 658.48 C 186.52 657.42 186.44 656.38 186.37 655.34 C 195.52 659.98 204.65 664.90 214.59 667.67 C 224.67 670.51 234.89 673.10 245.37 673.92 C 253.87 674.60 262.40 675.79 270.94 675.16 C 281.11 674.34 291.37 674.09 301.39 672.03 C 308.05 670.76 314.49 668.64 320.90 666.46 C 319.12 660.36 316.74 654.45 314.06 648.69 C 310.87 641.57 306.35 635.18 302.89 628.20 C 308.06 633.02 312.78 638.30 317.10 643.89 C 321.58 649.68 324.67 656.36 328.18 662.74 C 333.39 661.17 338.36 658.89 343.01 656.07 C 355.30 649.23 366.59 640.67 376.93 631.16 C 372.38 625.71 367.83 620.22 362.63 615.36 C 359.18 612.14 355.56 609.09 352.01 605.98 C 345.16 599.89 336.95 595.68 329.60 590.25 C 326.68 593.63 324.36 597.45 322.33 601.42 C 318.73 608.44 313.20 614.16 308.17 620.15 C 303.43 625.73 298.29 631.05 292.29 635.29 C 281.91 642.68 270.88 649.54 258.68 653.47 C 247.74 656.57 236.28 657.53 224.95 657.53 C 218.64 657.55 212.28 657.91 206.05 656.70 C 198.79 655.24 191.30 654.07 184.71 650.47 C 191.94 651.74 198.91 654.31 206.24 655.05 C 211.48 655.60 216.76 655.50 222.02 655.56 C 227.38 655.57 232.77 655.73 238.08 654.83 C 244.32 653.81 250.20 651.39 256.11 649.22 C 261.28 647.30 266.32 644.96 270.94 641.92 C 290.39 629.84 304.88 610.81 313.64 589.83 C 320.24 573.77 320.48 556.04 319.73 538.95 C 319.34 529.13 316.55 519.64 313.58 510.35 C 311.96 505.31 309.77 500.48 307.21 495.86 C 303.00 488.30 298.56 480.75 292.56 474.44 C 282.67 463.17 270.85 453.49 257.51 446.59 C 248.87 441.95 239.17 439.88 229.60 438.22 C 217.81 436.56 205.70 436.32 193.95 438.30 C 184.50 440.82 174.77 443.19 166.41 448.47 C 154.30 455.93 143.15 465.24 134.73 476.78 C 129.02 484.40 123.57 492.42 120.51 501.52 C 118.05 508.89 115.78 516.39 114.71 524.11 C 112.57 540.46 112.73 557.38 117.33 573.33 C 118.51 577.56 119.67 581.79 120.69 586.07 C 118.41 581.52 116.48 576.77 115.43 571.78 C 113.34 561.99 111.25 552.10 111.30 542.04 C 111.31 530.95 111.14 519.65 114.02 508.85 C 117.98 495.40 122.24 481.78 130.05 469.98 C 139.50 455.78 151.70 443.47 165.53 433.51 C 168.97 431.04 172.80 429.20 176.69 427.57 C 182.92 424.95 189.06 422.01 195.65 420.35 C 217.40 414.59 240.89 415.28 262.21 422.55 C 272.84 425.47 282.23 431.50 291.05 437.93 C 296.82 442.43 302.02 447.63 307.23 452.76 C 320.83 467.77 331.76 485.77 336.07 505.74 C 337.86 514.37 339.55 523.08 339.70 531.93 C 339.90 541.89 339.65 551.95 337.47 561.72 C 335.42 571.05 331.75 579.91 329.38 589.15 C 336.53 593.35 344.36 596.25 351.54 600.41 C 357.22 603.56 362.43 607.46 367.53 611.47 C 372.97 615.70 377.61 620.84 382.86 625.29 C 391.46 616.94 398.87 607.43 405.30 597.32 C 411.82 587.50 417.30 577.00 421.86 566.14 C 426.18 554.40 430.14 542.38 431.42 529.87 C 426.08 528.16 420.55 527.13 414.96 526.68 C 415.02 526.21 415.08 525.75 415.13 525.28 C 402.45 524.06 389.74 523.36 377.03 522.66 C 365.90 522.23 354.84 524.05 343.73 524.35 C 347.25 522.69 351.02 521.59 354.89 521.16 C 362.25 520.31 369.53 518.70 376.96 518.47 C 384.64 518.22 392.32 518.38 400.00 518.34 C 406.89 518.38 413.80 518.08 420.66 518.85 C 424.75 519.31 428.83 519.88 432.93 520.31 C 434.78 508.31 434.63 496.12 434.21 484.01 C 433.78 471.88 431.44 459.91 428.68 448.12 C 423.32 449.33 418.07 450.98 413.06 453.25 C 406.06 456.42 398.64 458.53 391.69 461.81 C 387.55 463.75 383.36 465.59 379.15 467.35 C 372.54 470.11 366.26 473.55 359.93 476.86 C 352.94 480.48 346.51 485.13 339.21 488.15 C 342.30 485.55 345.56 483.15 349.07 481.14 C 363.09 472.98 376.77 464.10 391.57 457.39 C 397.53 454.36 403.24 450.81 409.51 448.45 C 415.44 446.22 421.37 443.93 426.89 440.78 C 425.00 434.58 423.08 428.36 420.37 422.46 C 417.48 416.17 414.16 410.09 411.14 403.87 C 409.96 401.87 409.09 399.35 406.89 398.28 C 404.25 399.30 401.96 400.99 399.65 402.57 C 395.12 405.76 390.44 408.73 385.97 411.98 C 374.07 420.75 361.94 429.19 350.22 438.19 C 340.69 445.68 331.03 453.01 321.18 460.07 C 337.74 444.89 355.65 431.28 372.87 416.88 C 383.05 408.39 393.96 400.81 403.93 392.07 C 399.27 385.91 394.51 379.82 389.63 373.84 C 382.97 379.76 376.99 386.40 370.52 392.52 C 362.28 401.61 353.49 410.15 344.86 418.86 C 340.48 423.16 335.82 427.16 331.54 431.57 C 326.00 437.08 321.20 443.42 314.72 447.93 C 317.26 443.55 320.50 439.65 323.78 435.81 C 338.84 417.22 354.79 399.36 369.85 380.77 C 373.87 375.85 378.48 371.47 382.79 366.83 C 376.20 360.01 369.64 352.93 361.49 347.93 C 357.90 352.88 354.49 357.95 351.06 363.01 C 338.37 381.27 325.23 399.20 312.01 417.07 C 307.10 423.43 302.93 430.39 297.33 436.20 C 299.78 431.53 302.72 427.13 306.00 423.01 C 310.06 417.89 313.19 412.13 316.86 406.74 C 324.42 395.91 331.68 384.85 338.59 373.59 C 345.09 364.13 350.80 354.16 356.43 344.16 C 352.91 341.39 349.27 338.74 345.28 336.69 C 335.73 331.81 326.13 327.00 316.08 323.22 C 312.02 333.72 308.19 344.32 303.37 354.50 C 296.96 369.40 289.48 383.79 282.14 398.24 C 278.08 405.98 273.57 413.47 269.20 421.04 C 277.36 403.20 286.43 385.76 293.51 367.45 C 299.25 352.25 304.86 336.97 309.17 321.30 C 300.61 318.62 291.87 316.21 282.88 315.57 C 268.84 314.85 254.62 314.10 240.74 316.89 C 242.90 330.82 242.89 344.94 242.99 359.00 C 242.63 368.05 242.98 377.14 241.85 386.15 C 240.61 395.53 239.58 404.99 237.11 414.16 C 237.59 405.10 238.52 396.06 238.48 386.98 C 238.49 373.20 238.46 359.38 236.95 345.67 C 235.61 336.39 234.22 327.11 232.53 317.89 C 221.77 318.56 211.42 322.06 201.62 326.38 C 195.99 328.82 190.11 330.75 184.83 333.93 C 176.07 339.27 167.54 345.04 159.78 351.77 C 152.91 357.15 146.40 363.05 141.08 370.01 C 147.81 377.32 154.29 384.93 159.53 393.39 C 165.82 403.65 171.34 414.47 174.89 426.00 C 172.22 422.27 169.91 418.31 167.71 414.29 C 164.48 408.41 160.17 403.24 156.19 397.86 C 150.27 389.79 143.14 382.70 135.81 375.92 C 130.09 382.27 125.08 389.22 120.45 396.39 C 114.42 406.46 108.64 416.84 105.28 428.14 C 118.47 434.17 129.90 443.65 139.00 454.89 C 133.91 452.14 129.15 448.85 124.28 445.75 C 117.59 441.51 110.25 438.44 102.79 435.85 C 95.32 460.06 92.46 485.70 94.43 510.96 C 95.24 527.75 99.67 544.08 104.92 559.96 C 106.90 565.14 109.57 570.29 109.25 576.02 C 105.66 571.69 102.87 566.78 100.36 561.77 C 94.63 550.39 89.19 538.84 84.99 526.80 C 81.75 517.78 79.35 508.49 76.71 499.29 C 71.69 480.60 69.18 461.29 68.59 441.96 C 68.52 436.28 67.19 430.67 67.57 424.98 C 68.61 401.58 69.87 377.93 75.95 355.19 C 76.95 351.24 77.60 347.21 78.10 343.16 C 73.22 341.95 68.42 340.44 63.83 338.38 C 69.32 338.74 74.79 339.39 80.28 339.85 C 84.76 323.92 90.58 308.29 98.71 293.85 C 102.33 287.39 105.28 280.56 109.39 274.39 C 115.35 265.42 121.20 256.35 128.10 248.07 C 135.57 239.25 142.86 230.21 151.42 222.40 C 157.85 216.50 163.57 209.81 170.55 204.53 C 173.82 202.03 177.06 199.47 180.22 196.82 C 176.86 189.83 171.74 183.95 167.32 177.64 C 163.72 172.64 159.73 167.94 156.22 162.87 C 166.54 171.99 175.31 182.63 184.22 193.08 C 196.88 185.45 209.26 177.31 222.51 170.71 C 227.63 168.30 233.02 166.49 238.13 164.04 C 242.84 161.78 247.78 160.03 252.82 158.65 C 261.35 156.30 269.75 153.41 278.47 151.78 C 285.51 150.46 292.59 149.43 299.69 148.45 C 310.13 146.96 320.69 146.90 331.22 146.69 C 330.56 125.42 329.52 104.15 327.18 82.98 C 334.46 103.77 337.31 125.76 339.47 147.57 C 351.34 147.24 363.22 148.25 374.93 150.10 C 385.59 152.16 396.40 153.83 406.72 157.34 C 414.53 159.83 421.99 163.26 429.67 166.11 C 435.95 168.42 441.89 171.52 448.01 174.19 C 451.83 167.43 454.63 160.17 458.22 153.30 C 462.29 145.46 465.41 137.19 469.12 129.18 C 472.44 122.15 474.58 114.57 478.72 107.93 C 477.40 117.44 474.78 126.71 471.67 135.77 C 468.25 145.82 465.15 156.00 460.93 165.75 C 459.00 170.16 457.47 174.75 456.28 179.42 C 472.50 188.29 487.28 199.64 500.91 212.08 C 505.28 215.97 508.93 220.80 514.09 223.70 C 515.90 222.73 517.37 221.27 518.78 219.80 C 525.85 212.20 533.10 204.77 540.62 197.62 C 548.84 189.21 557.29 181.01 565.94 173.04 C 557.07 184.73 547.14 195.56 538.05 207.09 C 531.92 214.68 525.33 221.88 519.03 229.32 C 523.71 235.16 529.04 240.45 533.62 246.38 C 545.33 260.74 555.36 276.40 564.19 292.68 C 570.90 289.61 577.40 286.06 584.31 283.42 C 591.91 280.46 599.77 278.24 607.42 275.42 C 615.23 272.58 623.22 270.20 631.38 268.56 C 627.11 271.42 622.46 273.63 617.73 275.59 C 608.78 279.35 600.49 284.43 591.75 288.63 C 583.76 292.29 576.04 296.48 568.31 300.65 C 569.69 304.50 571.30 308.26 572.99 311.99 C 576.26 319.11 578.76 326.55 581.21 333.98 C 583.24 340.20 585.64 346.33 586.91 352.77 C 587.98 358.11 588.98 363.45 590.12 368.77 C 591.85 376.81 592.29 385.04 593.48 393.16 C 594.60 400.91 594.54 408.75 595.23 416.53 C 608.51 418.14 621.66 420.65 634.77 423.29 C 642.00 424.69 648.86 427.50 656.14 428.68 C 656.21 415.52 658.38 402.39 657.01 389.25 C 656.33 381.41 656.65 373.52 655.71 365.71 C 654.71 357.50 654.46 349.21 653.11 341.04 C 650.53 326.13 647.49 311.26 643.06 296.78 C 641.15 290.68 638.50 284.84 636.41 278.81 C 631.87 265.96 626.25 253.48 619.54 241.62 C 609.61 222.30 596.73 204.69 583.27 187.71 C 577.16 180.83 570.90 174.08 564.68 167.31 C 559.14 161.51 553.01 156.32 547.25 150.75 C 541.44 145.11 534.65 140.67 528.36 135.61 C 522.79 131.16 517.04 126.91 510.98 123.15 C 503.35 118.68 496.03 113.64 488.03 109.84 C 480.92 106.45 474.34 101.98 466.89 99.32 C 457.60 96.00 448.55 92.01 439.07 89.21 C 420.66 84.32 401.99 80.07 382.95 78.54 C 370.31 77.83 357.63 77.65 344.97 77.83 C 325.62 78.28 306.43 81.32 287.52 85.27 C 274.19 88.54 260.85 91.97 248.11 97.14 C 238.91 100.56 230.32 105.33 221.46 109.49 C 207.51 116.69 194.58 125.67 181.98 134.98 C 175.32 139.93 169.05 145.37 162.78 150.80 C 152.27 159.94 143.17 170.51 133.60 180.59 C 126.15 189.22 118.54 197.79 112.38 207.42 C 105.71 216.60 99.62 226.20 94.20 236.18 C 90.69 242.80 86.79 249.25 84.07 256.25 C 81.94 261.65 79.69 267.00 77.27 272.28 C 73.77 279.86 71.40 287.88 68.66 295.75 C 66.45 302.10 65.39 308.75 63.99 315.31 C 58.49 338.46 55.00 362.19 54.88 386.02 C 54.42 407.25 55.01 428.61 58.45 449.61 C 59.60 455.87 60.93 462.14 60.99 468.54 C 57.73 461.66 57.12 453.99 55.54 446.64 C 53.14 434.56 51.72 422.31 51.41 410.00 C 49.14 378.79 49.97 347.18 56.22 316.45 C 57.52 308.97 58.50 301.38 61.02 294.18 C 64.04 285.45 65.49 276.26 68.67 267.59 C 70.99 261.11 73.55 254.73 76.34 248.45 C 79.35 241.68 81.43 234.50 85.12 228.05 C 89.13 221.03 93.08 213.99 96.98 206.91 C 100.65 200.14 105.54 194.16 109.73 187.73 C 114.88 179.71 121.10 172.45 127.08 165.06 C 133.44 158.10 139.80 151.12 146.16 144.15 C 152.54 137.19 159.65 130.98 166.47 124.47 C 172.84 118.42 179.95 113.22 186.99 107.97 C 192.61 103.93 197.98 99.52 203.92 95.94 C 214.21 89.82 224.82 84.26 235.26 78.40 C 242.84 74.50 250.98 71.84 258.89 68.71 C 269.28 65.10 279.50 60.89 290.24 58.44 C 308.74 54.21 327.60 51.67 346.54 50.69 C 345.27 48.58 343.75 46.53 343.18 44.09 C 344.08 42.17 345.39 40.48 346.64 38.77 C 346.12 37.49 345.55 36.22 345.19 34.88 C 345.65 32.88 346.83 31.15 347.80 29.37 C 346.51 27.56 345.05 25.80 344.27 23.69 C 343.38 20.13 345.32 15.99 348.81 14.67 M 348.54 18.50 C 347.98 21.26 348.25 24.10 348.26 26.91 C 350.22 27.24 352.43 28.91 354.31 27.53 C 356.72 25.74 356.81 22.24 356.41 19.53 C 356.10 17.40 354.05 16.09 352.08 15.77 C 350.65 16.25 349.26 17.13 348.54 18.50 M 347.30 41.33 C 345.06 42.73 346.42 46.54 348.74 47.14 C 352.04 48.02 355.74 48.14 358.98 46.94 C 360.88 46.19 360.67 43.79 361.30 42.17 C 357.02 40.40 351.42 37.93 347.30 41.33 M 325.38 175.05 C 317.73 175.94 310.01 175.19 302.37 176.08 C 291.15 177.30 280.05 179.43 269.04 181.84 C 245.17 187.08 222.55 197.15 201.79 209.91 C 200.89 210.58 199.75 211.11 199.29 212.20 C 199.33 213.91 200.42 215.35 201.19 216.82 C 205.69 224.02 209.93 231.37 214.35 238.61 C 219.28 247.82 223.56 257.39 226.92 267.30 C 230.02 274.59 232.30 282.18 234.46 289.79 C 241.14 289.29 247.71 287.91 254.35 287.08 C 260.20 286.32 266.11 286.45 272.00 286.48 C 280.17 286.55 288.36 286.12 296.50 287.10 C 303.53 287.70 310.46 289.11 317.48 289.86 C 321.99 269.56 325.74 249.04 327.66 228.31 C 329.27 215.00 330.04 201.61 330.71 188.22 C 330.96 184.20 331.80 180.14 331.16 176.11 C 329.76 174.29 327.33 175.05 325.38 175.05 M 341.22 175.76 C 341.22 184.06 341.44 192.37 340.75 200.66 C 340.29 211.03 339.83 221.41 338.36 231.70 C 336.70 243.21 335.49 254.81 332.83 266.14 C 330.43 274.95 327.85 283.73 326.07 292.70 C 333.47 295.52 341.25 297.23 348.47 300.52 C 357.46 304.76 366.06 309.73 374.52 314.92 C 377.34 309.96 380.14 304.97 383.04 300.05 C 386.17 294.78 388.64 289.15 391.93 283.97 C 395.74 277.89 398.79 271.38 402.24 265.11 C 407.57 255.67 412.40 245.96 417.35 236.32 C 422.51 225.32 428.66 214.83 433.92 203.87 C 434.43 202.52 435.43 201.01 434.60 199.58 C 431.21 197.18 427.16 196.04 423.36 194.50 C 415.54 191.69 408.22 187.55 400.11 185.58 C 392.37 183.65 384.78 181.12 376.90 179.79 C 365.13 177.64 353.24 175.13 341.22 175.76 M 434.89 224.90 C 430.95 232.65 427.38 240.61 423.04 248.16 C 416.75 259.11 410.59 270.15 404.04 280.95 C 399.66 289.38 393.76 296.88 389.31 305.26 C 386.72 309.98 383.42 314.25 380.55 318.80 C 385.52 323.76 391.36 327.71 396.49 332.50 C 399.45 335.22 402.27 338.08 405.12 340.92 C 410.71 334.90 415.84 328.48 421.38 322.42 C 442.20 299.59 463.44 277.15 484.57 254.62 C 488.02 251.36 491.41 248.01 494.14 244.10 C 482.25 232.13 469.22 221.26 455.27 211.77 C 452.02 209.36 448.49 207.36 444.86 205.59 C 440.62 211.53 438.23 218.47 434.89 224.90 M 177.44 227.48 C 167.59 235.21 158.75 244.11 150.02 253.05 C 140.94 262.06 132.90 272.06 125.48 282.45 C 121.77 288.35 117.10 293.59 113.75 299.71 C 111.83 303.13 109.84 306.51 107.86 309.91 C 104.29 315.93 102.12 322.65 98.69 328.75 C 96.09 333.38 93.89 338.28 93.00 343.55 C 100.02 346.01 107.40 347.58 114.05 351.05 C 119.34 353.74 124.37 356.92 129.28 360.26 C 131.81 357.77 134.12 355.08 136.30 352.28 C 140.78 346.50 146.36 341.72 151.41 336.45 C 157.84 329.78 165.11 324.01 172.46 318.40 C 177.09 314.85 182.27 312.14 187.28 309.18 C 198.13 302.53 209.73 297.06 221.79 292.99 C 223.03 292.33 225.05 292.06 225.41 290.48 C 225.33 287.71 224.16 285.13 223.24 282.56 C 220.76 276.37 218.28 270.18 215.92 263.93 C 212.83 256.02 208.75 248.54 205.44 240.71 C 201.91 232.13 196.97 224.23 192.55 216.09 C 187.40 219.73 182.53 223.75 177.44 227.48 M 491.60 261.58 C 477.06 278.36 462.37 295.00 447.43 311.42 C 437.35 322.99 426.88 334.21 416.02 345.05 C 414.99 346.42 412.92 347.69 413.40 349.65 C 415.45 352.83 418.35 355.35 420.51 358.46 C 423.89 363.25 427.37 367.97 430.80 372.72 C 443.12 363.62 455.38 354.38 468.51 346.47 C 475.01 342.67 480.83 337.82 487.56 334.39 C 496.65 328.82 505.39 322.64 514.83 317.64 C 522.62 312.87 531.00 309.21 538.91 304.66 C 535.92 296.95 530.49 290.61 526.38 283.52 C 519.10 272.95 511.59 262.47 502.73 253.15 C 502.06 252.38 501.23 251.99 500.23 251.97 C 496.95 254.78 494.48 258.39 491.60 261.58 M 499.97 339.00 C 490.41 344.77 480.75 350.39 471.21 356.18 C 459.30 363.87 447.36 371.54 435.10 378.66 C 437.64 385.06 441.44 390.86 443.95 397.28 C 449.31 407.86 453.27 419.10 455.88 430.67 C 461.70 429.30 467.00 426.34 472.85 425.05 C 485.02 421.89 497.59 420.75 509.78 417.68 C 513.11 416.90 516.51 416.50 519.91 416.18 C 525.59 415.65 531.22 414.55 536.94 414.43 C 547.09 414.14 557.25 414.59 567.40 414.16 C 567.80 405.71 566.16 397.36 565.50 388.96 C 563.87 371.28 559.13 354.07 553.56 337.28 C 550.89 329.25 548.60 320.78 543.22 314.06 C 529.00 322.72 514.10 330.20 499.97 339.00 M 91.03 347.26 C 88.11 354.72 86.03 362.47 83.44 370.04 C 79.06 387.81 76.45 406.04 75.66 424.32 C 82.78 424.43 89.91 424.48 97.03 424.29 C 98.64 418.91 100.18 413.49 102.48 408.35 C 105.87 400.89 108.89 393.24 113.10 386.18 C 116.48 379.62 120.39 373.36 124.16 367.02 C 117.51 361.75 110.41 357.00 102.76 353.30 C 98.81 351.36 94.90 349.35 91.03 347.26 M 551.97 425.59 C 538.28 426.53 524.62 427.88 510.94 429.09 C 493.23 431.14 475.63 434.45 458.62 439.87 C 459.85 447.85 461.44 455.83 461.59 463.94 C 461.84 476.96 463.34 490.04 461.68 503.03 C 461.18 510.96 459.40 518.74 458.78 526.66 C 464.89 528.57 470.73 531.20 476.75 533.37 C 482.76 535.77 488.30 539.18 494.30 541.61 C 508.39 547.69 520.68 556.98 533.04 565.89 C 538.61 557.02 543.03 547.52 547.10 537.89 C 551.32 530.34 553.32 521.88 555.88 513.69 C 558.93 504.48 560.92 494.99 563.44 485.64 C 565.13 479.01 565.15 472.13 565.76 465.36 C 566.30 459.57 567.09 453.80 567.40 447.99 C 567.66 440.38 568.95 432.79 568.20 425.16 C 562.80 425.48 557.38 425.37 551.97 425.59 M 75.72 430.49 C 74.48 437.93 74.78 445.49 75.05 453.00 C 75.36 474.39 78.41 495.71 83.91 516.37 C 88.20 529.82 92.68 543.26 99.00 555.92 C 101.17 560.16 103.05 564.53 105.07 568.84 C 105.91 570.79 107.54 572.19 109.10 573.56 C 107.01 566.46 103.62 559.83 101.27 552.82 C 97.29 543.11 95.13 532.82 93.25 522.53 C 90.52 509.21 89.78 495.57 89.76 482.00 C 89.69 465.52 91.00 448.85 95.78 433.02 C 89.23 431.35 82.49 430.41 75.72 430.49 M 168.81 483.63 C 165.96 493.55 165.87 504.10 166.89 514.30 C 168.17 522.05 168.96 530.02 171.91 537.37 C 175.49 545.81 178.92 554.36 183.76 562.19 C 189.97 573.22 199.43 581.82 208.52 590.43 C 215.82 597.21 224.51 602.29 233.48 606.51 C 240.81 609.99 248.94 611.47 257.02 611.58 C 264.85 611.67 273.03 611.83 280.31 608.48 C 275.53 607.55 270.60 606.90 266.19 604.70 C 261.41 602.30 256.55 599.93 252.29 596.67 C 241.49 587.55 230.95 578.06 221.80 567.25 C 216.31 560.68 210.47 554.33 206.01 546.98 C 201.83 540.10 197.33 533.39 193.89 526.09 C 191.15 520.22 187.65 514.72 185.26 508.68 C 181.68 500.39 178.66 491.81 176.99 482.92 C 175.98 477.47 176.09 471.91 175.54 466.43 C 172.46 471.80 170.96 477.86 168.81 483.63 M 248.98 511.89 C 249.48 512.96 249.99 514.04 250.50 515.13 C 254.27 511.61 257.00 507.21 259.76 502.91 C 255.89 505.55 252.32 508.60 248.98 511.89 M 455.51 536.05 C 453.56 545.55 449.88 554.55 446.49 563.61 C 443.99 570.09 440.42 576.07 437.14 582.17 C 431.87 591.88 425.29 600.80 418.50 609.49 C 414.13 615.07 409.09 620.07 404.36 625.34 C 400.40 629.84 395.53 633.42 391.61 637.95 C 399.49 650.15 405.14 663.70 408.95 677.70 C 422.61 673.75 434.54 665.79 446.59 658.51 C 452.39 654.76 457.74 650.36 463.36 646.35 C 475.41 636.83 486.59 626.26 497.09 615.07 C 501.92 609.87 506.23 604.23 510.87 598.87 C 517.98 590.75 522.91 581.03 529.76 572.70 C 525.88 569.72 521.87 566.89 517.59 564.51 C 511.36 561.05 505.34 557.19 498.86 554.19 C 492.46 551.20 486.25 547.83 479.73 545.10 C 471.80 541.74 463.96 537.97 455.51 536.05 M 370.66 652.76 C 358.53 660.95 344.95 666.57 331.40 671.95 C 332.81 679.93 332.62 688.04 331.57 696.06 C 341.94 695.39 352.31 694.33 362.54 692.45 C 376.60 689.50 390.57 685.97 403.95 680.68 C 403.42 677.33 402.57 674.02 401.03 671.00 C 398.23 665.46 395.84 659.71 392.65 654.39 C 390.25 650.34 387.85 646.29 385.54 642.20 C 380.57 645.70 375.67 649.30 370.66 652.76 M 188.56 658.69 C 191.76 664.08 197.91 666.17 203.10 669.07 C 217.49 676.84 232.51 683.65 248.35 687.86 C 253.87 689.35 259.26 691.41 264.97 692.12 C 278.61 693.87 292.20 696.68 306.01 696.48 C 312.76 696.43 319.52 696.62 326.26 696.27 C 326.25 688.86 325.53 681.40 323.20 674.34 C 310.98 677.06 298.59 679.20 286.06 679.62 C 275.35 679.79 264.62 679.80 253.95 678.69 C 246.68 678.32 239.75 676.01 232.66 674.60 C 223.22 672.61 213.83 669.99 205.11 665.78 C 199.65 663.29 194.40 660.22 188.56 658.69 Z" />
<path fill="#050561" opacity="1.00" d=" M 367.80 15.85 C 371.53 12.01 378.70 13.14 381.49 17.54 C 381.98 19.17 382.06 20.89 382.25 22.57 C 377.95 22.53 373.64 22.55 369.35 22.79 C 369.77 26.48 370.99 31.07 375.18 31.99 C 377.85 31.88 380.17 30.21 382.63 29.30 C 381.41 30.87 380.51 32.98 378.49 33.67 C 374.83 35.13 370.12 34.63 367.38 31.61 C 363.43 27.30 363.85 20.01 367.80 15.85 M 370.73 16.57 C 370.22 17.76 369.75 18.97 369.33 20.19 C 372.36 20.27 375.39 20.26 378.42 20.11 C 377.75 18.85 377.11 17.56 376.30 16.38 C 374.69 15.16 372.31 15.44 370.73 16.57 Z" />
<path fill="#050561" opacity="1.00" d=" M 470.27 14.39 C 471.19 14.75 472.11 15.12 473.03 15.52 C 470.96 19.53 468.06 23.17 464.02 25.33 C 465.46 21.35 467.85 17.83 470.27 14.39 Z" />
<path fill="#050561" opacity="1.00" d=" M 386.34 14.48 C 390.21 15.24 394.14 15.41 398.08 15.23 C 400.55 15.00 403.73 16.31 403.92 19.12 C 404.38 24.09 403.40 29.06 403.25 34.03 C 405.37 34.17 407.50 34.21 409.63 34.19 C 410.65 28.37 412.22 22.08 409.20 16.56 C 411.46 16.68 413.72 16.79 415.99 16.91 C 415.64 21.78 414.71 26.58 414.37 31.45 C 414.20 33.83 415.83 35.78 416.85 37.80 C 410.35 36.96 403.88 35.97 397.38 35.21 C 400.10 30.44 400.41 24.70 399.59 19.38 C 398.12 16.73 394.08 17.46 392.56 19.67 C 390.67 24.61 390.25 30.65 393.78 34.99 C 390.63 34.72 387.48 34.47 384.34 34.21 C 388.15 28.35 387.57 21.04 386.34 14.48 Z" />
<path fill="#050561" opacity="1.00" d=" M 425.71 19.86 C 429.07 18.62 433.85 18.58 436.00 21.96 C 437.70 24.22 437.70 27.17 438.03 29.86 C 433.53 29.17 429.05 28.34 424.55 27.67 C 424.55 31.27 424.66 35.91 428.43 37.72 C 431.43 38.51 434.45 36.91 437.40 36.39 C 435.97 37.73 434.68 39.45 432.70 39.99 C 427.03 41.79 420.30 37.64 419.49 31.72 C 418.97 27.05 421.45 21.98 425.71 19.86 M 426.93 21.93 C 426.05 23.08 425.41 24.39 424.72 25.64 C 427.67 25.99 430.62 26.26 433.59 26.42 C 433.06 24.53 432.44 22.67 431.72 20.86 C 430.11 21.18 428.48 21.40 426.93 21.93 Z" />
<path fill="#050561" opacity="1.00" d=" M 440.22 22.00 C 443.11 22.23 446.04 22.69 448.52 24.30 C 450.73 25.85 453.49 25.44 456.02 25.38 C 456.35 27.21 456.69 29.03 456.99 30.86 C 454.27 30.12 451.57 28.36 448.70 28.70 C 446.13 30.77 445.45 34.43 444.70 37.50 C 443.99 40.18 445.83 42.51 446.94 44.79 C 443.67 43.87 440.40 42.95 437.13 42.02 C 441.10 38.36 442.55 32.92 442.77 27.69 C 442.77 25.52 441.17 23.83 440.22 22.00 Z" />
<path fill="#050561" opacity="1.00" d=" M 459.11 27.41 C 461.32 27.82 463.52 28.27 465.72 28.75 C 465.02 33.10 463.75 37.31 462.59 41.55 C 461.72 44.07 462.76 46.62 463.47 49.03 C 460.07 48.25 456.68 47.44 453.32 46.52 C 453.41 46.15 453.57 45.43 453.65 45.06 C 455.11 44.07 456.96 43.38 457.84 41.74 C 459.73 38.25 460.61 34.33 461.78 30.56 C 460.88 29.51 459.99 28.46 459.11 27.41 Z" />
<path fill="#050561" opacity="1.00" d=" M 221.77 31.58 C 223.71 31.01 225.65 29.55 227.73 29.93 C 230.31 34.15 231.43 39.05 233.18 43.64 C 235.10 42.06 236.94 40.21 239.34 39.37 C 241.93 38.78 244.93 39.25 246.92 41.11 C 250.51 44.58 251.42 50.51 248.74 54.80 C 246.21 59.39 241.05 61.36 236.36 62.99 C 232.48 54.53 229.83 45.58 226.08 37.07 C 225.11 34.92 223.35 33.28 221.77 31.58 M 234.82 46.09 C 235.20 50.73 237.63 54.86 239.44 59.06 C 241.87 58.24 244.85 57.59 245.96 54.96 C 247.95 50.49 245.52 44.90 241.35 42.65 C 238.66 41.30 235.08 42.99 234.82 46.09 Z" />
<path fill="#050561" opacity="1.00" d=" M 260.37 31.34 C 263.24 30.91 266.56 31.03 268.82 33.13 C 273.44 37.37 273.76 45.67 268.86 49.84 C 264.79 53.60 257.79 53.05 254.32 48.74 C 249.29 43.14 252.62 32.24 260.37 31.34 M 259.52 33.47 C 257.26 34.30 256.02 36.73 256.10 39.05 C 256.07 42.70 256.94 47.06 260.26 49.14 C 262.42 49.82 265.51 50.06 266.97 47.94 C 269.33 44.54 268.21 39.96 266.35 36.59 C 265.12 34.14 262.21 32.58 259.52 33.47 Z" />
<path fill="#050561" opacity="1.00" d=" M 468.73 36.57 C 470.63 34.42 472.55 31.25 475.84 31.51 C 479.04 32.13 482.66 34.48 482.71 38.09 C 482.75 41.89 480.70 45.32 480.39 49.07 C 480.56 50.85 481.25 52.52 481.76 54.23 C 480.13 54.37 478.44 54.62 476.88 54.00 C 473.93 52.98 470.87 52.28 468.01 51.02 C 464.98 48.86 464.93 42.04 469.45 41.69 C 472.39 41.15 475.38 41.11 478.36 40.88 C 478.17 38.68 478.71 35.46 475.86 34.80 C 473.41 35.05 471.08 35.92 468.73 36.57 M 470.59 43.56 C 470.45 45.42 470.31 47.28 470.19 49.14 C 471.70 49.14 473.23 49.19 474.75 49.02 C 477.04 48.11 476.50 45.23 476.96 43.29 C 474.83 43.36 472.71 43.46 470.59 43.56 Z" />
<path fill="#050561" opacity="1.00" d=" M 515.44 32.97 C 517.66 34.03 519.89 35.05 522.13 36.08 C 520.19 42.99 516.28 49.10 513.91 55.85 C 512.06 59.97 510.91 64.41 511.32 68.95 C 506.75 66.92 501.87 65.24 498.04 61.92 C 495.30 59.50 493.50 55.45 494.95 51.88 C 496.54 47.97 499.80 44.24 504.15 43.56 C 507.21 43.83 509.72 45.93 512.36 47.33 C 513.72 45.25 515.26 43.21 515.99 40.79 C 516.52 38.19 515.77 35.55 515.44 32.97 M 502.85 47.76 C 499.69 50.70 498.76 55.70 499.95 59.76 C 500.64 62.40 503.39 63.26 505.60 64.23 C 507.51 60.22 509.95 56.34 510.81 51.93 C 511.74 47.75 505.81 44.96 502.85 47.76 Z" />
<path fill="#050561" opacity="1.00" d=" M 216.37 50.11 C 219.67 48.90 223.43 49.79 226.27 51.71 C 228.87 53.60 229.58 57.07 229.75 60.09 C 230.12 67.20 221.58 73.38 215.08 69.79 C 209.52 67.14 208.05 59.81 210.54 54.55 C 211.79 52.36 214.06 50.95 216.37 50.11 M 215.53 52.26 C 213.14 53.50 212.52 56.48 212.90 58.94 C 213.39 62.96 215.96 67.14 220.09 68.17 C 223.29 68.18 226.81 65.45 226.55 62.02 C 226.27 58.83 224.60 55.89 222.48 53.56 C 220.82 51.60 217.78 50.97 215.53 52.26 Z" />
<path fill="#050561" opacity="1.00" d=" M 177.71 57.02 C 179.52 55.37 181.30 53.68 183.06 51.99 C 185.74 56.32 187.75 61.03 190.49 65.32 C 193.12 64.55 194.83 62.04 197.45 61.29 C 200.72 60.78 204.64 61.57 206.53 64.54 C 209.61 68.95 208.41 75.17 204.99 79.03 C 202.71 81.74 199.31 83.03 196.14 84.35 C 191.27 76.03 187.32 67.19 182.04 59.10 C 181.14 57.59 179.19 57.59 177.71 57.02 M 192.35 67.89 C 194.13 72.42 196.35 76.78 199.17 80.76 C 201.09 79.42 203.68 78.37 204.28 75.85 C 205.00 72.94 204.65 69.60 202.85 67.13 C 201.25 65.24 198.97 64.13 196.91 62.84 C 195.36 64.50 193.84 66.19 192.35 67.89 Z" />
<path fill="#050561" opacity="1.00" d=" M 542.91 57.69 C 544.19 55.84 545.46 53.96 546.73 52.08 C 553.57 57.66 560.63 63.24 568.80 66.75 C 568.07 68.70 567.30 70.63 566.53 72.55 C 566.10 72.58 565.24 72.62 564.81 72.65 C 564.51 70.86 564.46 68.98 563.66 67.33 C 562.34 65.49 560.11 64.68 558.24 63.55 C 554.19 69.53 550.52 75.76 547.00 82.05 C 545.51 84.50 546.07 87.41 546.31 90.10 C 542.88 88.16 539.56 85.97 536.78 83.17 C 538.23 82.78 539.78 82.65 541.14 81.95 C 542.71 80.51 543.76 78.62 544.89 76.84 C 548.09 71.37 551.75 66.14 554.14 60.23 C 552.39 59.21 550.74 57.88 548.74 57.40 C 546.79 57.22 544.84 57.53 542.91 57.69 Z" />
<path fill="#050561" opacity="1.00" d=" M 518.65 58.65 C 521.89 54.38 529.35 53.88 532.52 58.48 C 534.72 61.22 534.28 64.89 533.96 68.14 C 529.42 66.64 525.48 63.83 520.99 62.21 C 520.61 64.13 520.15 66.05 520.09 68.02 C 519.95 70.64 521.64 73.36 524.21 74.10 C 526.64 74.32 529.07 73.91 531.50 73.77 C 527.66 78.00 519.43 76.92 517.48 71.34 C 515.53 67.31 515.55 62.11 518.65 58.65 M 522.67 58.40 C 523.52 59.55 524.29 60.78 525.36 61.75 C 527.08 62.85 529.16 63.11 531.11 63.63 C 530.47 61.35 529.75 59.10 528.96 56.88 C 526.84 57.32 524.75 57.83 522.67 58.40 Z" />
<path fill="#050561" opacity="1.00" d=" M 173.02 77.02 C 175.07 73.49 180.54 72.70 183.36 75.73 C 185.91 78.49 187.55 81.93 189.41 85.16 C 190.70 85.33 191.99 85.50 193.29 85.68 C 190.77 89.38 186.84 91.73 183.14 94.08 C 179.47 96.35 174.80 91.23 176.72 87.59 C 178.10 84.95 180.15 82.71 181.44 80.02 C 180.54 78.53 179.02 76.98 177.10 77.57 C 173.81 78.50 174.04 82.63 172.91 85.23 C 170.88 82.82 171.06 79.43 173.02 77.02 M 179.87 86.97 C 180.14 88.34 180.55 89.68 180.93 91.02 C 182.31 90.90 183.69 90.77 185.08 90.65 C 186.03 87.39 184.58 84.39 182.73 81.78 C 181.67 83.44 180.28 85.00 179.87 86.97 Z" />
<path fill="#050561" opacity="1.00" d=" M 583.39 76.71 C 586.02 77.85 588.40 79.51 590.29 81.69 C 585.05 88.96 579.65 96.09 574.20 103.19 C 572.55 105.09 572.51 107.66 572.35 110.02 C 569.48 108.09 566.84 105.82 564.72 103.07 C 566.29 102.87 567.90 102.77 569.45 102.35 C 571.36 100.98 572.63 98.93 574.03 97.07 C 577.67 91.68 582.25 86.94 585.24 81.11 C 584.60 79.65 583.98 78.18 583.39 76.71 Z" />
<path fill="#050561" opacity="1.00" d=" M 558.77 79.87 C 563.33 77.96 568.96 80.59 570.96 84.98 C 572.06 87.60 571.14 90.47 570.76 93.14 C 566.37 91.13 562.60 88.09 558.75 85.24 C 557.65 87.04 556.13 88.82 556.17 91.06 C 556.00 93.61 556.82 96.70 559.44 97.72 C 562.00 98.51 564.72 98.50 567.37 98.86 C 565.27 100.05 562.92 101.32 560.44 100.49 C 557.30 99.43 554.48 97.17 552.77 94.33 C 550.94 88.91 553.54 82.32 558.77 79.87 M 559.52 82.95 C 561.86 85.51 564.61 87.76 568.09 88.52 C 567.53 86.34 567.78 83.48 565.70 82.06 C 563.68 80.90 561.50 82.51 559.52 82.95 Z" />
<path fill="#050561" opacity="1.00" d=" M 164.49 83.36 C 165.53 82.60 166.68 82.01 167.80 81.37 C 168.20 82.05 169.02 83.43 169.42 84.11 C 167.41 85.93 164.66 87.37 163.73 90.04 C 164.95 95.04 168.61 99.70 173.79 100.96 C 169.97 104.06 166.01 106.99 162.15 110.04 C 159.31 112.20 157.29 115.24 154.45 117.39 C 151.29 118.43 148.40 114.98 148.68 111.99 C 149.29 108.35 151.17 105.10 152.64 101.76 C 150.71 100.84 148.18 99.20 146.30 101.15 C 145.03 103.28 144.81 105.84 144.10 108.18 C 143.60 105.87 142.83 103.37 143.95 101.10 C 145.27 97.06 151.50 95.30 154.46 98.55 C 157.20 101.32 159.31 104.62 161.70 107.68 C 163.44 106.41 165.20 105.17 166.95 103.91 C 164.73 99.70 161.99 95.79 158.88 92.20 C 157.18 92.24 155.49 92.28 153.79 92.31 C 155.55 90.09 157.58 88.11 159.76 86.32 C 160.62 87.10 161.48 87.89 162.34 88.68 C 162.99 86.89 163.29 84.89 164.49 83.36 M 152.04 111.60 C 152.95 113.64 155.40 112.87 157.15 113.19 C 157.15 111.53 157.27 109.87 157.02 108.23 C 156.13 106.81 154.98 105.59 153.89 104.33 C 152.92 106.55 150.61 109.13 152.04 111.60 Z" />
<path fill="#050561" opacity="1.00" d=" M 118.55 108.52 C 121.43 104.55 125.60 101.83 129.29 98.69 C 131.72 100.67 133.93 102.88 135.94 105.27 C 132.67 104.74 129.44 103.49 126.09 103.75 C 120.90 105.19 118.69 111.10 119.42 116.04 C 119.46 120.88 123.07 124.55 126.62 127.34 C 129.87 129.93 134.55 131.08 138.48 129.43 C 141.25 128.00 143.47 125.41 144.42 122.43 C 145.01 119.53 144.63 116.54 144.74 113.59 C 147.04 117.03 146.61 121.51 145.10 125.18 C 142.14 132.09 133.25 136.23 126.27 132.83 C 120.76 130.10 116.16 124.40 116.23 118.02 C 116.15 114.74 116.52 111.23 118.55 108.52 Z" />
<path fill="#050561" opacity="1.00" d=" M 578.13 109.97 C 578.33 104.49 583.89 100.59 589.07 100.70 C 593.36 100.72 596.76 104.87 596.83 108.99 C 596.72 111.11 595.83 113.07 595.14 115.05 C 591.81 112.27 588.68 109.25 585.96 105.87 C 588.51 107.38 591.00 109.00 593.54 110.54 C 593.69 108.62 594.84 106.41 593.49 104.68 C 591.66 101.65 586.76 102.25 585.02 105.07 C 582.77 108.38 581.20 112.86 582.97 116.73 C 584.13 119.67 587.73 119.82 590.21 121.06 C 588.01 121.13 585.68 121.56 583.65 120.49 C 579.61 118.81 578.05 114.01 578.13 109.97 Z" />
<path fill="#050561" opacity="1.00" d=" M 594.60 120.50 C 596.99 116.12 602.99 114.28 607.38 116.67 C 610.27 118.76 612.36 121.73 614.79 124.31 C 613.05 125.94 611.32 127.57 609.63 129.23 C 609.88 126.63 610.63 123.95 609.99 121.36 C 608.78 118.35 604.94 117.91 602.22 118.84 C 597.25 120.77 594.82 127.72 597.68 132.22 C 600.08 133.64 602.79 134.46 605.28 135.73 C 602.89 135.64 600.32 135.96 598.13 134.82 C 593.46 132.00 591.26 125.14 594.60 120.50 Z" />
<path fill="#050561" opacity="1.00" d=" M 612.49 131.40 C 617.70 128.86 624.53 132.08 626.37 137.46 C 627.23 140.45 626.94 143.80 625.53 146.58 C 623.47 150.75 618.04 152.55 613.74 151.25 C 609.32 149.05 606.15 144.04 606.91 139.03 C 607.33 135.76 609.57 132.88 612.49 131.40 M 615.51 134.33 C 612.57 135.89 610.12 138.71 609.53 142.05 C 609.01 145.00 610.84 148.77 614.19 148.77 C 619.87 148.66 625.44 143.07 624.24 137.21 C 623.35 133.42 618.51 132.49 615.51 134.33 Z" />
<path fill="#050561" opacity="1.00" d=" M 99.38 150.19 C 99.77 146.84 102.10 143.46 105.41 142.49 C 107.64 142.16 110.78 141.57 111.90 144.13 C 110.14 148.23 106.91 151.46 104.52 155.20 C 106.12 156.36 107.66 157.67 109.51 158.42 C 112.38 159.29 115.91 157.58 116.71 154.63 C 117.29 152.49 117.40 150.27 117.62 148.07 C 118.09 148.28 119.03 148.70 119.50 148.91 C 119.43 151.43 119.88 154.23 118.35 156.43 C 116.74 158.78 114.61 161.42 111.54 161.62 C 108.44 161.77 104.97 161.51 102.49 159.45 C 100.24 156.98 99.24 153.48 99.38 150.19 M 101.86 147.21 C 101.42 149.53 101.85 151.90 102.10 154.22 C 105.19 152.21 107.45 149.21 108.51 145.67 C 106.24 145.73 103.46 145.13 101.86 147.21 Z" />
<path fill="#050561" opacity="1.00" d=" M 632.71 143.99 C 634.08 146.15 635.35 148.38 636.51 150.66 C 637.68 153.06 639.84 154.73 641.37 156.87 C 642.31 158.96 642.46 161.66 641.27 163.68 C 639.04 166.33 635.83 167.92 633.54 170.50 C 632.35 172.00 632.04 173.96 631.42 175.73 C 629.44 172.96 627.36 170.25 625.17 167.65 C 627.31 167.51 629.66 167.73 631.56 166.50 C 634.53 164.62 637.53 162.51 639.58 159.60 C 640.32 156.25 636.29 153.63 633.30 154.37 C 628.66 156.09 625.10 160.11 623.90 164.91 C 621.68 162.41 619.71 159.71 617.91 156.90 C 620.13 156.71 622.61 156.96 624.49 155.51 C 627.05 153.75 629.55 151.80 631.49 149.35 C 632.34 147.70 632.33 145.77 632.71 143.99 Z" />
<path fill="#050561" opacity="1.00" d=" M 80.45 149.84 C 88.75 154.48 95.28 161.61 103.21 166.77 C 105.02 168.21 107.22 167.00 109.16 166.57 C 106.66 170.57 104.58 174.89 101.45 178.46 C 98.02 182.32 91.58 182.40 87.64 179.29 C 84.39 176.86 83.80 172.21 84.66 168.50 C 85.77 165.87 88.04 164.00 89.93 161.94 C 88.02 160.21 86.15 158.38 83.93 157.05 C 81.85 155.72 79.27 156.29 76.94 156.29 C 78.14 154.16 79.30 152.00 80.45 149.84 M 90.38 164.95 C 88.72 165.66 86.75 166.96 86.95 169.02 C 86.96 174.11 91.96 178.25 96.97 177.59 C 99.77 177.74 103.17 175.24 102.28 172.19 C 100.57 169.76 98.20 167.87 95.76 166.21 C 94.20 165.19 92.27 163.99 90.38 164.95 Z" />
<path fill="#050561" opacity="1.00" d=" M 644.03 163.35 C 645.45 164.13 647.12 164.62 648.29 165.82 C 650.01 168.07 650.61 171.41 648.98 173.88 C 646.94 176.87 643.53 178.49 641.13 181.12 C 640.03 182.54 639.58 184.32 638.89 185.95 C 637.04 183.68 635.40 181.27 633.82 178.82 C 639.18 178.00 644.07 174.44 646.77 169.81 C 646.44 167.46 644.96 165.48 644.03 163.35 Z" />
<path fill="#050561" opacity="1.00" d=" M 653.74 175.53 C 656.00 177.80 657.86 180.45 659.05 183.44 C 655.15 185.69 651.01 187.63 647.52 190.52 C 645.91 191.60 646.02 193.80 646.43 195.47 C 647.49 197.18 649.68 198.20 651.66 197.63 C 654.26 196.86 656.58 195.30 658.59 193.51 C 660.58 191.92 660.47 189.17 661.00 186.92 C 662.73 189.08 664.23 191.43 665.50 193.90 C 661.35 197.11 656.47 199.28 652.49 202.69 C 650.77 204.21 652.11 206.63 653.18 208.11 C 657.28 207.75 660.88 205.39 664.28 203.25 C 666.24 202.20 666.47 199.84 667.12 197.95 C 669.10 200.17 670.89 202.79 670.09 205.92 C 671.48 207.19 672.94 208.41 674.19 209.84 C 676.01 211.75 676.01 215.18 673.99 216.96 C 670.56 220.20 665.55 221.36 662.57 225.12 C 662.53 227.20 663.55 229.11 664.19 231.04 C 668.22 229.20 672.57 227.82 676.09 225.05 C 677.01 223.47 677.46 221.68 678.10 219.98 C 679.57 222.10 681.27 224.24 681.76 226.86 C 677.74 230.45 672.50 232.19 667.80 234.68 C 667.30 236.11 666.82 237.55 666.34 238.99 C 663.18 232.24 659.35 225.80 656.85 218.77 C 659.07 219.07 661.45 219.74 663.61 218.74 C 666.53 217.50 669.51 215.95 671.57 213.47 C 672.67 210.42 669.78 207.59 666.90 207.30 C 664.02 207.77 661.42 209.33 659.14 211.07 C 657.28 212.47 656.81 214.89 655.94 216.91 C 653.34 212.46 651.12 207.81 648.90 203.16 C 647.42 200.03 645.10 197.43 643.30 194.51 C 641.88 192.30 643.01 189.40 644.79 187.76 C 647.63 185.06 651.09 183.14 654.30 180.91 C 654.11 179.12 653.90 177.32 653.74 175.53 Z" />
<path fill="#050561" opacity="1.00" d=" M 59.63 181.90 C 62.25 182.95 64.78 184.26 67.07 185.92 C 71.38 189.03 75.96 191.71 80.41 194.60 C 82.01 195.57 83.60 196.64 85.41 197.21 C 86.95 197.34 88.46 196.87 89.97 196.61 C 87.37 200.80 85.38 205.39 82.28 209.26 C 80.60 211.47 77.83 212.79 75.04 212.49 C 70.06 212.30 65.73 207.93 65.61 202.95 C 65.20 198.95 68.49 196.11 70.80 193.31 C 68.28 191.74 65.84 190.00 63.11 188.81 C 61.17 187.96 59.00 188.50 56.97 188.58 C 57.88 186.36 58.76 184.13 59.63 181.90 M 72.38 195.53 C 69.21 196.47 66.69 200.28 68.57 203.42 C 71.07 207.47 76.96 209.74 81.29 207.34 C 82.96 206.18 85.06 203.73 83.41 201.72 C 81.30 199.32 78.40 197.76 75.59 196.33 C 74.57 195.96 73.50 195.20 72.38 195.53 Z" />
<path fill="#050561" opacity="1.00" d=" M 56.17 220.94 C 55.87 217.46 57.93 212.85 62.04 213.23 C 66.55 213.55 70.26 216.61 74.45 218.04 C 74.75 217.31 75.34 215.86 75.64 215.13 C 76.67 216.37 77.70 217.61 78.74 218.86 C 75.43 222.05 74.19 226.46 72.44 230.54 C 70.80 231.88 68.49 231.87 66.48 231.65 C 65.39 230.74 64.84 229.37 64.76 227.98 C 64.40 224.50 64.61 220.99 64.56 217.50 C 63.04 217.37 61.52 217.23 60.01 217.10 C 58.56 220.35 59.00 223.87 59.42 227.28 C 57.88 225.46 55.98 223.54 56.17 220.94 M 66.80 219.92 C 66.73 221.89 66.70 223.86 66.68 225.83 C 67.28 226.20 68.48 226.94 69.09 227.30 C 69.80 227.18 71.24 226.92 71.95 226.79 C 71.96 224.95 71.93 223.12 71.84 221.29 C 70.16 220.82 68.48 220.37 66.80 219.92 Z" />
<path fill="#050561" opacity="1.00" d=" M 686.38 218.77 C 688.84 219.57 690.52 221.38 691.26 223.87 C 689.12 224.64 686.91 224.78 684.73 224.15 C 685.11 222.31 685.66 220.51 686.38 218.77 Z" />
<path fill="#050561" opacity="1.00" d=" M 38.43 223.92 C 47.41 225.71 54.84 231.40 63.23 234.70 C 65.43 235.76 67.84 234.98 70.08 234.52 C 68.22 239.37 66.97 244.61 63.77 248.81 C 61.56 251.71 57.48 253.55 53.95 251.99 C 50.35 250.40 47.11 247.09 46.82 243.00 C 46.70 239.65 48.59 236.71 50.01 233.81 C 47.18 232.11 44.41 229.92 41.06 229.44 C 39.46 229.76 38.08 230.72 36.64 231.45 C 37.27 228.95 37.86 226.43 38.43 223.92 M 51.90 235.85 C 49.04 237.28 48.31 241.21 50.23 243.69 C 52.78 247.01 57.72 248.30 61.63 246.89 C 64.08 246.01 64.63 243.20 65.66 241.12 C 62.51 239.27 59.42 237.29 56.00 235.98 C 54.70 235.53 53.14 234.87 51.90 235.85 Z" />
<path fill="#050561" opacity="1.00" d=" M 669.28 243.36 C 670.31 238.93 674.54 235.48 679.10 235.39 C 682.58 235.19 685.70 237.62 687.35 240.53 C 688.92 243.49 689.69 246.79 690.73 249.97 C 688.58 250.68 686.45 251.41 684.32 252.15 C 685.38 249.83 686.69 247.56 687.11 245.02 C 687.18 241.85 684.32 238.78 681.03 239.28 C 676.41 239.75 671.50 243.84 672.13 248.86 C 672.15 250.17 672.79 251.39 673.77 252.26 C 676.46 254.72 680.04 255.90 682.87 258.18 C 685.03 260.02 686.59 262.43 688.31 264.66 C 689.42 263.97 690.57 263.30 691.62 262.50 C 693.06 261.69 692.92 259.32 691.64 258.43 C 690.09 257.37 688.28 256.80 686.57 256.10 C 686.51 255.57 686.40 254.51 686.34 253.98 C 689.20 254.49 692.71 254.81 694.28 257.68 C 695.16 260.09 695.19 262.89 694.30 265.31 C 692.88 267.96 689.82 268.89 687.25 270.01 C 684.30 271.09 681.55 272.61 678.93 274.32 C 678.43 270.99 677.37 267.80 676.22 264.64 C 675.32 262.27 675.99 259.73 676.31 257.32 C 674.27 255.47 672.02 253.75 670.56 251.39 C 669.21 248.98 668.76 246.07 669.28 243.36 M 677.37 263.33 C 677.09 265.05 678.83 266.10 680.20 266.67 C 682.22 266.82 684.19 266.19 686.16 265.82 C 685.10 264.24 684.37 262.20 682.58 261.30 C 680.61 260.55 678.68 261.99 677.37 263.33 Z" />
<path fill="#050561" opacity="1.00" d=" M 31.77 253.86 C 32.66 251.75 33.65 248.72 36.57 249.32 C 38.14 250.61 38.48 253.57 36.61 254.75 C 34.96 254.71 33.36 254.23 31.77 253.86 Z" />
<path fill="#050561" opacity="1.00" d=" M 42.41 252.26 C 46.65 254.02 50.71 256.21 54.99 257.89 C 57.02 258.78 59.20 257.87 61.24 257.49 C 60.32 261.09 59.17 264.63 57.79 268.08 C 56.90 265.88 56.65 262.94 54.22 261.84 C 51.75 260.50 49.11 259.46 46.38 258.79 C 44.08 258.02 42.08 259.78 40.13 260.73 C 40.94 257.91 41.68 255.08 42.41 252.26 Z" />
<path fill="#050561" opacity="1.00" d=" M 38.71 263.08 C 40.74 263.68 42.79 264.26 44.75 265.06 C 43.70 267.39 40.41 267.27 39.03 269.28 C 38.91 270.61 38.85 271.93 38.86 273.27 C 42.74 272.40 45.25 269.23 48.43 267.15 C 52.34 264.89 57.45 269.49 56.44 273.64 C 55.71 276.44 54.18 278.93 52.89 281.50 C 51.01 280.88 49.14 280.27 47.27 279.64 C 47.33 279.21 47.44 278.34 47.49 277.91 C 49.87 277.01 52.96 276.85 54.50 274.56 C 55.57 272.31 53.50 269.94 51.12 270.71 C 48.06 272.33 46.28 275.53 43.37 277.35 C 40.36 278.65 37.54 275.54 37.05 272.79 C 36.76 269.47 37.96 266.26 38.71 263.08 Z" />
<path fill="#050561" opacity="1.00" d=" M 681.19 283.86 C 680.80 277.90 686.60 272.20 692.61 273.53 C 696.56 274.62 700.08 277.80 701.01 281.87 C 702.41 287.41 703.60 293.00 704.90 298.57 C 700.95 299.51 696.90 300.03 693.01 301.22 C 690.34 301.98 688.56 304.22 686.64 306.07 C 685.81 302.76 685.15 299.38 685.19 295.95 C 685.53 291.43 680.96 288.36 681.19 283.86 M 684.26 287.60 C 685.27 289.84 687.57 291.16 689.12 293.03 C 688.44 294.52 687.57 295.91 686.81 297.35 C 691.39 296.97 696.19 296.61 700.29 294.32 C 701.15 292.95 701.71 291.42 702.35 289.94 C 700.24 290.17 698.15 290.45 696.06 290.75 C 698.05 287.59 701.03 283.38 698.28 279.78 C 693.12 274.75 682.68 280.54 684.26 287.60 Z" />
<path fill="#050561" opacity="1.00" d=" M 33.56 281.60 C 34.21 280.55 35.01 279.61 35.78 278.66 C 36.72 279.48 37.66 280.31 38.59 281.14 C 37.82 283.77 35.95 286.67 37.34 289.41 C 39.84 290.93 42.71 291.75 45.58 292.25 C 47.69 292.74 49.46 291.20 51.23 290.35 C 50.59 293.23 49.98 296.12 49.37 299.01 C 43.84 295.58 36.71 292.84 30.35 295.67 C 30.77 292.77 31.72 289.92 34.06 288.00 C 33.81 285.88 33.29 283.74 33.56 281.60 Z" />
<path fill="#050561" opacity="1.00" d=" M 708.41 294.14 C 708.64 292.06 711.29 291.77 712.75 290.79 C 713.15 292.69 713.65 294.60 713.63 296.57 C 712.03 299.12 707.79 296.85 708.41 294.14 Z" />
<path fill="#050561" opacity="1.00" d=" M 28.68 303.59 C 30.32 300.55 34.03 299.91 37.03 298.96 C 36.90 303.85 36.20 308.69 35.57 313.54 C 37.66 313.48 39.78 313.57 41.85 313.14 C 43.78 312.62 44.88 310.64 45.30 308.82 C 45.39 306.00 44.21 303.36 43.55 300.67 C 44.95 301.74 47.26 302.27 47.51 304.30 C 48.07 307.45 47.98 310.85 46.70 313.82 C 44.32 318.15 38.48 320.21 33.94 318.14 C 28.24 316.13 26.41 308.74 28.68 303.59 M 29.80 306.77 C 28.70 308.82 30.32 310.91 30.97 312.83 C 31.69 312.80 33.11 312.74 33.82 312.71 C 34.34 309.45 34.71 306.16 34.83 302.86 C 33.06 303.99 30.79 304.77 29.80 306.77 Z" />
<path fill="#050561" opacity="1.00" d=" M 697.39 305.63 C 700.77 305.20 704.17 307.04 706.37 309.53 C 710.00 314.91 708.93 323.53 702.98 326.84 C 700.18 328.08 696.70 328.30 693.89 326.99 C 688.81 323.54 687.16 316.16 689.81 310.71 C 691.30 307.90 694.36 306.26 697.39 305.63 M 694.60 311.63 C 690.99 313.29 688.73 319.05 692.45 321.72 C 696.66 323.34 702.29 322.95 705.46 319.41 C 707.82 316.96 706.41 312.62 703.45 311.38 C 700.66 310.19 697.32 310.32 694.60 311.63 Z" />
<path fill="#050561" opacity="1.00" d=" M 25.57 318.15 C 26.35 318.30 27.13 318.49 27.90 318.71 C 29.11 320.60 30.25 322.67 32.24 323.86 C 35.90 326.19 39.76 328.18 43.44 330.49 C 43.53 331.04 43.70 332.15 43.79 332.71 C 39.70 333.84 35.52 334.55 31.41 335.57 C 28.33 336.26 25.75 338.15 23.19 339.90 C 23.72 337.08 24.24 334.26 24.79 331.44 C 28.80 332.57 32.86 331.50 36.72 330.35 C 36.65 329.87 36.51 328.90 36.44 328.42 C 34.30 327.22 32.23 325.80 29.83 325.17 C 28.19 325.25 26.68 325.99 25.14 326.52 C 25.32 323.73 25.45 320.94 25.57 318.15 Z" />
<path fill="#050561" opacity="1.00" d=" M 691.15 329.30 C 696.74 333.65 704.95 332.10 710.35 328.18 C 710.16 331.06 709.93 333.93 709.70 336.81 C 710.74 338.52 711.96 340.18 712.51 342.13 C 712.59 344.50 711.53 347.19 709.32 348.29 C 706.03 349.55 702.38 349.11 699.06 350.17 C 696.93 351.07 695.23 352.68 693.44 354.07 C 693.12 350.49 692.84 346.90 692.65 343.31 C 695.56 344.69 698.69 345.95 701.99 345.49 C 704.59 345.14 708.05 345.11 709.48 342.49 C 709.85 340.64 708.68 338.89 707.55 337.56 C 706.24 335.87 703.88 336.13 702.01 336.10 C 698.32 336.10 695.17 338.18 692.18 340.09 C 691.78 336.50 691.48 332.90 691.15 329.30 Z" />
<path fill="#050561" opacity="1.00" d=" M 12.30 345.18 C 13.07 343.33 15.17 342.73 16.72 341.72 C 17.79 344.21 18.08 346.86 16.86 349.36 C 15.09 348.33 12.28 347.72 12.30 345.18 Z" />
<path fill="#050561" opacity="1.00" d=" M 36.31 345.55 C 38.53 345.80 40.29 344.19 42.10 343.18 C 41.48 350.45 41.44 357.75 41.52 365.05 C 39.49 363.58 37.59 361.55 34.94 361.38 C 31.42 361.11 27.89 361.46 24.37 361.61 C 24.21 364.54 23.82 368.39 27.01 369.91 C 30.58 371.22 34.51 370.49 38.23 370.47 C 38.87 369.29 39.52 368.12 40.18 366.97 C 40.29 372.63 40.33 378.31 40.07 383.98 C 40.24 385.85 38.64 386.99 37.59 388.29 C 39.28 391.32 41.43 394.37 41.45 397.98 C 41.58 401.91 40.20 406.55 36.39 408.36 C 30.22 410.72 23.48 410.10 17.02 410.68 C 14.73 410.79 13.11 412.61 11.34 413.83 C 10.49 409.72 9.90 405.45 10.92 401.31 C 12.86 402.43 14.46 404.42 16.84 404.55 C 20.56 404.82 24.29 404.52 28.02 404.51 C 30.70 404.35 33.61 404.50 36.02 403.12 C 38.37 401.65 38.65 398.52 38.43 396.02 C 38.09 393.24 36.93 390.20 34.42 388.72 C 29.97 388.03 25.43 388.43 20.94 388.43 C 17.32 388.36 13.87 389.54 10.59 390.95 C 10.55 388.55 10.52 386.15 10.49 383.75 C 17.01 384.39 23.55 383.87 30.07 383.79 C 32.16 383.70 34.28 383.74 36.32 383.23 C 38.97 381.75 40.06 377.80 37.56 375.63 C 33.66 374.56 29.50 374.12 25.48 374.57 C 23.74 375.36 22.40 376.76 20.93 377.94 C 21.20 375.03 21.63 372.13 22.00 369.24 C 22.30 366.64 21.43 364.09 21.58 361.50 C 22.34 359.27 24.14 357.20 26.48 356.62 C 30.22 356.05 33.98 357.05 37.73 356.72 C 40.62 355.61 38.76 351.80 39.01 349.44 C 35.37 349.41 31.73 349.11 28.10 349.42 C 25.71 349.57 24.07 351.54 22.27 352.88 C 22.31 350.19 22.30 347.50 22.28 344.81 C 26.98 344.44 31.64 345.17 36.31 345.55 Z" />
<path fill="#050561" opacity="1.00" d=" M 701.52 354.64 C 709.26 352.68 716.54 362.45 712.35 369.27 C 711.15 372.13 708.11 373.17 705.45 374.18 C 705.16 369.30 705.01 364.41 704.74 359.53 C 702.81 359.93 700.74 360.02 699.02 361.02 C 697.16 362.37 695.69 364.59 695.80 366.95 C 696.42 369.57 697.76 371.93 698.79 374.41 C 697.41 373.37 695.76 372.56 694.81 371.09 C 691.61 365.16 694.52 356.11 701.52 354.64 M 706.41 360.30 C 706.28 363.12 706.73 365.92 707.11 368.71 C 707.81 368.71 709.21 368.71 709.91 368.70 C 710.46 366.87 711.10 365.05 711.28 363.14 C 710.45 361.46 708.43 358.55 706.41 360.30 Z" />
<path fill="#050561" opacity="1.00" d=" M 694.44 376.29 C 696.69 376.38 698.94 376.45 701.20 376.56 C 699.43 378.73 697.16 380.57 695.88 383.09 C 695.83 384.49 695.85 385.89 695.95 387.29 C 697.30 386.91 698.80 386.87 700.03 386.11 C 702.31 383.44 703.69 380.16 705.41 377.13 C 708.08 377.35 711.61 377.09 712.95 380.01 C 714.10 383.15 713.46 386.60 713.51 389.87 C 711.36 389.89 709.21 389.91 707.07 389.95 C 709.05 387.55 713.63 383.93 709.96 380.97 C 706.21 382.52 705.65 387.26 702.98 389.99 C 700.91 390.95 698.49 390.60 696.28 390.84 C 695.23 388.67 693.75 386.52 693.86 384.02 C 693.87 381.43 694.20 378.86 694.44 376.29 Z" />
</g>
</svg>
