<?xml version="1.0" encoding="UTF-8"?>
<svg xmlns="http://www.w3.org/2000/svg" xmlns:xlink="http://www.w3.org/1999/xlink" width="151pt" height="58pt" viewBox="0 0 151 58" version="1.1">
<g id="surface1">
<path style=" stroke:none;fill-rule:nonzero;fill:rgb(4.313725%,14.901961%,39.607843%);fill-opacity:1;" d="M 125.9375 2.617188 C 126.453125 2.675781 127.003906 2.667969 127.492188 2.882812 C 127.039062 3.449219 126.601562 4.023438 126.121094 4.558594 C 125.746094 4.988281 125.109375 4.773438 124.613281 4.835938 C 124.949219 4.035156 125.480469 3.34375 125.9375 2.617188 Z M 125.9375 2.617188 "/>
<path style=" stroke:none;fill-rule:nonzero;fill:rgb(4.313725%,14.901961%,39.607843%);fill-opacity:1;" d="M 47.480469 2.878906 C 47.957031 2.878906 48.4375 2.878906 48.914062 2.875 C 49.058594 5.9375 48.988281 9.007812 48.960938 12.070312 C 48.453125 12.078125 47.949219 12.09375 47.441406 12.082031 C 47.40625 9.015625 47.34375 5.945312 47.480469 2.878906 Z M 47.480469 2.878906 "/>
<path style=" stroke:none;fill-rule:nonzero;fill:rgb(4.313725%,14.901961%,39.607843%);fill-opacity:1;" d="M 64.574219 2.933594 C 65.140625 2.9375 65.71875 2.910156 66.277344 3.015625 C 66.269531 5.347656 66.277344 7.683594 66.285156 10.015625 C 66.257812 10.710938 66.316406 11.425781 66.136719 12.105469 C 65.84375 12.105469 65.253906 12.105469 64.957031 12.105469 C 64.886719 11.839844 64.816406 11.570312 64.757812 11.308594 C 64.320312 11.75 63.777344 12.070312 63.183594 12.257812 C 62.203125 12.480469 61.144531 11.96875 60.65625 11.105469 C 60.316406 10.371094 60.21875 9.539062 60.183594 8.742188 C 60.335938 7.742188 60.503906 6.539062 61.421875 5.933594 C 61.878906 5.511719 62.542969 5.558594 63.117188 5.546875 C 63.644531 5.535156 64.054688 5.910156 64.46875 6.183594 C 64.488281 5.097656 64.5 4.015625 64.574219 2.933594 M 62.378906 7.398438 C 61.824219 8.0625 62.039062 8.992188 62.070312 9.777344 C 62.101562 10.257812 62.46875 10.683594 62.929688 10.796875 C 63.566406 10.859375 64.191406 10.472656 64.464844 9.902344 C 64.550781 9.1875 64.488281 8.464844 64.503906 7.746094 C 64.15625 7.488281 63.84375 7.140625 63.40625 7.046875 C 63.054688 7.039062 62.570312 7.027344 62.378906 7.398438 Z M 62.378906 7.398438 "/>
<path style=" stroke:none;fill-rule:nonzero;fill:rgb(4.313725%,14.901961%,39.607843%);fill-opacity:1;" d="M 109.449219 3.382812 C 109.53125 3.058594 109.988281 3.078125 110.230469 3.066406 C 110.542969 3.035156 111.128906 3.015625 111.230469 3.4375 C 111.277344 3.714844 111.375 4.269531 111.421875 4.546875 C 110.777344 4.777344 110.074219 4.953125 109.417969 4.6875 C 109.410156 4.253906 109.332031 3.808594 109.449219 3.382812 Z M 109.449219 3.382812 "/>
<path style=" stroke:none;fill-rule:nonzero;fill:rgb(4.313725%,14.901961%,39.607843%);fill-opacity:1;" d="M 15.53125 3.585938 C 17.179688 3.582031 18.832031 3.507812 20.476562 3.636719 C 20.417969 4.046875 20.371094 4.457031 20.304688 4.863281 C 19.265625 4.863281 18.226562 4.863281 17.1875 4.859375 C 17.183594 5.585938 17.1875 6.3125 17.1875 7.035156 C 18.09375 7.039062 19.003906 7.042969 19.914062 7.066406 C 19.921875 7.328125 19.9375 7.847656 19.941406 8.109375 C 19.871094 8.179688 19.800781 8.246094 19.730469 8.316406 C 18.882812 8.328125 18.035156 8.332031 17.1875 8.335938 C 17.183594 9.160156 17.1875 9.980469 17.1875 10.808594 C 18.199219 10.808594 19.210938 10.8125 20.222656 10.824219 C 20.308594 10.894531 20.394531 10.96875 20.480469 11.042969 C 20.449219 11.398438 20.402344 11.757812 20.3125 12.105469 C 18.808594 12.085938 17.304688 12.148438 15.800781 12.085938 C 15.441406 12.089844 15.210938 11.632812 15.320312 11.308594 C 15.273438 8.800781 15.320312 6.292969 15.320312 3.785156 C 15.390625 3.71875 15.460938 3.652344 15.53125 3.585938 Z M 15.53125 3.585938 "/>
<path style=" stroke:none;fill-rule:nonzero;fill:rgb(4.313725%,14.901961%,39.607843%);fill-opacity:1;" d="M 78.050781 3.601562 C 78.589844 3.59375 79.132812 3.59375 79.675781 3.597656 C 79.699219 6.441406 79.78125 9.292969 79.640625 12.132812 C 79.097656 12.097656 78.554688 12.097656 78.019531 11.980469 C 78.046875 9.1875 78 6.394531 78.050781 3.601562 Z M 78.050781 3.601562 "/>
<path style=" stroke:none;fill-rule:nonzero;fill:rgb(4.313725%,14.901961%,39.607843%);fill-opacity:1;" d="M 23.011719 5.652344 C 23.96875 5.441406 25.042969 5.457031 25.835938 6.109375 C 25.792969 6.46875 25.757812 6.828125 25.703125 7.1875 C 25.058594 6.96875 24.429688 6.582031 23.71875 6.65625 C 23.160156 6.8125 23.019531 7.523438 23.488281 7.847656 C 24.253906 8.339844 25.316406 8.425781 25.847656 9.25 C 26.214844 9.960938 26.152344 10.9375 25.636719 11.558594 C 24.527344 12.519531 22.863281 12.480469 21.617188 11.808594 C 21.636719 11.40625 21.65625 11 21.679688 10.601562 C 22.535156 10.992188 23.507812 11.269531 24.410156 10.875 C 24.40625 10.578125 24.40625 10.28125 24.402344 9.980469 C 23.597656 9.507812 22.578125 9.34375 21.949219 8.601562 C 21.550781 8.171875 21.625 7.507812 21.660156 6.972656 C 21.886719 6.367188 22.378906 5.828125 23.011719 5.652344 Z M 23.011719 5.652344 "/>
<path style=" stroke:none;fill-rule:nonzero;fill:rgb(4.313725%,14.901961%,39.607843%);fill-opacity:1;" d="M 27.308594 7.3125 C 27.824219 5.527344 30.375 4.953125 31.726562 6.125 C 31.976562 6.5625 31.828125 7.117188 31.804688 7.601562 C 31.183594 7.332031 30.648438 6.796875 29.929688 6.839844 C 29.226562 6.945312 28.785156 7.652344 28.84375 8.332031 C 28.863281 9.070312 28.644531 10.164062 29.433594 10.609375 C 30.25 11.15625 31.109375 10.472656 31.8125 10.085938 C 31.804688 10.601562 32.046875 11.199219 31.765625 11.660156 C 30.527344 12.644531 28.4375 12.511719 27.511719 11.152344 C 26.898438 9.988281 26.785156 8.535156 27.308594 7.3125 Z M 27.308594 7.3125 "/>
<path style=" stroke:none;fill-rule:nonzero;fill:rgb(4.313725%,14.901961%,39.607843%);fill-opacity:1;" d="M 42.175781 5.652344 C 43.074219 5.492188 44.128906 5.40625 44.914062 5.976562 C 45.601562 6.4375 45.933594 7.273438 45.984375 8.078125 C 46.085938 8.511719 45.972656 8.945312 45.785156 9.335938 C 44.476562 9.320312 43.167969 9.308594 41.863281 9.351562 C 41.929688 9.84375 41.964844 10.460938 42.464844 10.722656 C 43.398438 11.300781 44.546875 10.898438 45.503906 10.59375 C 45.570312 10.675781 45.636719 10.757812 45.707031 10.839844 C 45.71875 11.148438 45.738281 11.457031 45.75 11.765625 C 44.1875 12.496094 42.066406 12.65625 40.765625 11.332031 C 40.179688 10.503906 40.046875 9.421875 40.113281 8.429688 C 40.25 7.234375 40.933594 5.976562 42.175781 5.652344 M 42.371094 6.941406 C 41.996094 7.210938 41.996094 7.730469 41.820312 8.117188 C 42.691406 8.128906 43.5625 8.128906 44.433594 8.121094 C 44.304688 7.683594 44.246094 7.144531 43.839844 6.859375 C 43.417969 6.523438 42.765625 6.585938 42.371094 6.941406 Z M 42.371094 6.941406 "/>
<path style=" stroke:none;fill-rule:nonzero;fill:rgb(4.313725%,14.901961%,39.607843%);fill-opacity:1;" d="M 50.902344 6.085938 C 51.878906 5.425781 53.144531 5.519531 54.257812 5.617188 C 54.859375 5.746094 55.535156 6.125 55.648438 6.785156 C 55.910156 8.539062 55.839844 10.332031 55.742188 12.097656 C 55.457031 12.097656 54.886719 12.101562 54.597656 12.105469 C 54.515625 11.910156 54.4375 11.710938 54.363281 11.511719 C 53.847656 11.878906 53.304688 12.28125 52.640625 12.285156 C 51.839844 12.378906 51.046875 11.921875 50.582031 11.292969 C 50.175781 10.480469 50.34375 9.320312 51.167969 8.832031 C 52.066406 8.289062 53.1875 8.386719 54.183594 8.296875 C 54.054688 7.867188 54.25 7.136719 53.683594 6.972656 C 52.714844 6.648438 51.761719 7.117188 50.839844 7.375 C 50.832031 6.949219 50.664062 6.472656 50.902344 6.085938 M 52.480469 9.554688 C 51.929688 9.808594 51.898438 10.738281 52.441406 11.019531 C 52.925781 11.253906 53.546875 11.074219 53.902344 10.679688 C 54.292969 10.339844 54.050781 9.726562 54.171875 9.289062 C 53.609375 9.363281 53.003906 9.300781 52.480469 9.554688 Z M 52.480469 9.554688 "/>
<path style=" stroke:none;fill-rule:nonzero;fill:rgb(4.313725%,14.901961%,39.607843%);fill-opacity:1;" d="M 68.589844 6.195312 C 69.332031 5.492188 70.429688 5.480469 71.382812 5.585938 C 72.207031 5.726562 72.9375 6.320312 73.207031 7.125 C 73.386719 7.84375 73.367188 8.597656 73.265625 9.328125 C 71.929688 9.320312 70.59375 9.324219 69.261719 9.324219 C 69.292969 9.800781 69.34375 10.375 69.792969 10.652344 C 70.726562 11.339844 71.976562 10.910156 72.960938 10.589844 C 73.027344 10.671875 73.097656 10.757812 73.164062 10.839844 C 73.171875 11.148438 73.195312 11.457031 73.210938 11.765625 C 71.679688 12.472656 69.628906 12.652344 68.300781 11.457031 C 67.222656 9.917969 67.269531 7.578125 68.589844 6.195312 M 69.804688 6.917969 C 69.484375 7.242188 69.359375 7.695312 69.210938 8.105469 C 70.082031 8.125 70.957031 8.132812 71.828125 8.128906 C 71.695312 7.714844 71.710938 7.203125 71.324219 6.929688 C 70.917969 6.542969 70.226562 6.570312 69.804688 6.917969 Z M 69.804688 6.917969 "/>
<path style=" stroke:none;fill-rule:nonzero;fill:rgb(4.313725%,14.901961%,39.607843%);fill-opacity:1;" d="M 84.410156 5.609375 C 85.042969 5.535156 85.785156 5.417969 86.328125 5.847656 C 86.976562 6.261719 87.167969 7.085938 87.25 7.800781 C 87.367188 9.179688 87.308594 10.566406 87.3125 11.949219 C 86.722656 12.035156 86.113281 12.101562 85.519531 11.996094 C 85.527344 10.742188 85.574219 9.484375 85.523438 8.234375 C 85.464844 7.839844 85.4375 7.34375 85.046875 7.132812 C 84.429688 6.851562 83.621094 7.230469 83.347656 7.820312 C 83.175781 9.160156 83.285156 10.519531 83.25 11.871094 C 83.175781 11.953125 83.105469 12.039062 83.039062 12.125 C 82.546875 12.085938 82.058594 12.082031 81.578125 11.980469 C 81.601562 9.855469 81.53125 7.734375 81.652344 5.613281 C 82.050781 5.621094 82.453125 5.644531 82.851562 5.683594 C 83.027344 5.914062 83.027344 6.222656 83.105469 6.496094 C 83.5 6.152344 83.878906 5.714844 84.410156 5.609375 Z M 84.410156 5.609375 "/>
<path style=" stroke:none;fill-rule:nonzero;fill:rgb(4.313725%,14.901961%,39.607843%);fill-opacity:1;" d="M 88.664062 7.328125 C 88.835938 6.3125 89.828125 5.46875 90.871094 5.582031 C 91.976562 5.578125 93.078125 5.652344 94.183594 5.65625 C 94.273438 6.097656 94.285156 6.550781 94.21875 7 C 93.941406 7.015625 93.679688 7.03125 93.414062 7.046875 C 93.464844 7.660156 93.675781 8.347656 93.304688 8.898438 C 92.691406 10.023438 91.226562 10.1875 90.109375 9.84375 C 90.019531 9.988281 89.929688 10.132812 89.839844 10.273438 C 90.546875 10.769531 91.484375 10.519531 92.285156 10.695312 C 92.933594 10.835938 93.78125 10.960938 94.039062 11.691406 C 94.492188 12.378906 94.121094 13.234375 93.617188 13.769531 C 92.921875 14.507812 91.8125 14.550781 90.867188 14.578125 C 90.007812 14.605469 89.039062 14.414062 88.453125 13.734375 C 88.058594 12.988281 88.320312 12.066406 88.933594 11.539062 C 88.726562 11.128906 88.472656 10.710938 88.523438 10.230469 C 88.601562 9.855469 88.835938 9.539062 89.035156 9.222656 C 88.835938 8.617188 88.492188 7.980469 88.664062 7.328125 M 90.816406 6.695312 C 90.113281 6.933594 89.9375 7.90625 90.320312 8.488281 C 90.765625 9.039062 91.703125 8.890625 91.984375 8.257812 C 92.402344 7.5 91.707031 6.363281 90.816406 6.695312 M 90.1875 11.75 C 90.101562 12.160156 89.609375 12.84375 90.101562 13.171875 C 90.585938 13.53125 91.242188 13.382812 91.796875 13.335938 C 92.210938 13.269531 92.371094 12.832031 92.609375 12.542969 C 92.515625 12.382812 92.332031 12.058594 92.242188 11.898438 C 91.558594 11.828125 90.867188 11.796875 90.1875 11.75 Z M 90.1875 11.75 "/>
<path style=" stroke:none;fill-rule:nonzero;fill:rgb(4.313725%,14.901961%,39.607843%);fill-opacity:1;" d="M 95.714844 6.453125 C 96.292969 5.71875 97.277344 5.476562 98.175781 5.546875 C 99.367188 5.453125 100.53125 6.417969 100.679688 7.601562 C 100.742188 8.003906 100.789062 8.421875 100.75 8.828125 C 100.71875 9.183594 100.296875 9.425781 99.957031 9.3125 C 98.839844 9.355469 97.726562 9.324219 96.613281 9.328125 C 96.65625 9.964844 96.945312 10.703125 97.609375 10.898438 C 98.570312 11.195312 99.515625 10.792969 100.441406 10.582031 C 100.4375 11.011719 100.445312 11.445312 100.445312 11.875 C 99.148438 12.300781 97.644531 12.578125 96.382812 11.925781 C 95.816406 11.648438 95.316406 11.167969 95.167969 10.535156 C 94.808594 9.1875 94.785156 7.582031 95.714844 6.453125 M 97.554688 6.714844 C 96.945312 6.898438 96.695312 7.546875 96.625 8.125 C 97.441406 8.132812 98.257812 8.132812 99.074219 8.128906 C 99.039062 7.785156 99.007812 7.441406 98.976562 7.09375 C 98.539062 6.867188 98.089844 6.472656 97.554688 6.714844 Z M 97.554688 6.714844 "/>
<path style=" stroke:none;fill-rule:nonzero;fill:rgb(4.313725%,14.901961%,39.607843%);fill-opacity:1;" d="M 103.539062 6.578125 C 104.105469 6.113281 104.6875 5.492188 105.488281 5.554688 C 106.519531 5.320312 107.523438 6.09375 107.71875 7.097656 C 107.996094 8.703125 107.8125 10.351562 107.863281 11.972656 C 107.300781 12.03125 106.730469 12.0625 106.167969 12 C 106.0625 10.429688 106.496094 8.757812 105.859375 7.261719 C 105.214844 6.746094 104.378906 7.207031 103.894531 7.714844 C 103.832031 9.183594 104.140625 10.738281 103.671875 12.164062 C 103.175781 12.027344 102.375 12.335938 102.074219 11.765625 C 101.976562 10.457031 102.027344 9.144531 102.015625 7.835938 C 102.054688 7.097656 101.898438 6.296875 102.269531 5.625 C 102.664062 5.644531 103.0625 5.664062 103.464844 5.6875 C 103.480469 5.984375 103.515625 6.28125 103.539062 6.578125 Z M 103.539062 6.578125 "/>
<path style=" stroke:none;fill-rule:nonzero;fill:rgb(4.313725%,14.901961%,39.607843%);fill-opacity:1;" d="M 114.402344 5.691406 C 115.464844 5.40625 116.730469 5.414062 117.601562 6.183594 C 118.363281 6.945312 118.320312 8.109375 118.34375 9.105469 C 118.261719 9.171875 118.179688 9.238281 118.101562 9.304688 C 116.78125 9.328125 115.460938 9.300781 114.144531 9.355469 C 114.234375 9.984375 114.539062 10.6875 115.191406 10.894531 C 116.15625 11.210938 117.117188 10.824219 118.046875 10.589844 C 118.0625 11.023438 118.078125 11.457031 118.054688 11.886719 C 116.808594 12.261719 115.394531 12.558594 114.15625 12.023438 C 113.511719 11.757812 112.941406 11.222656 112.777344 10.523438 C 112.261719 8.84375 112.539062 6.417969 114.402344 5.691406 M 115.214844 6.703125 C 114.601562 6.851562 114.394531 7.550781 114.121094 8.050781 C 114.984375 8.117188 115.847656 8.136719 116.71875 8.148438 C 116.652344 7.773438 116.59375 7.394531 116.542969 7.019531 C 116.113281 6.859375 115.703125 6.507812 115.214844 6.703125 Z M 115.214844 6.703125 "/>
<path style=" stroke:none;fill-rule:nonzero;fill:rgb(4.313725%,14.901961%,39.607843%);fill-opacity:1;" d="M 122.320312 5.605469 C 122.742188 5.574219 123.171875 5.617188 123.59375 5.667969 C 123.5625 6.21875 123.5625 6.777344 123.492188 7.328125 C 123.136719 7.277344 122.773438 7.203125 122.417969 7.210938 C 122.050781 7.398438 121.722656 7.703125 121.542969 8.078125 C 121.417969 9.285156 121.539062 10.5 121.480469 11.707031 C 121.503906 11.902344 121.320312 12.019531 121.15625 12.066406 C 120.664062 12.097656 120.179688 12.078125 119.703125 11.972656 C 119.746094 9.863281 119.59375 7.746094 119.839844 5.644531 C 120.136719 5.648438 120.722656 5.648438 121.015625 5.648438 C 121.105469 5.921875 121.15625 6.195312 121.253906 6.46875 C 121.582031 6.152344 121.878906 5.765625 122.320312 5.605469 Z M 122.320312 5.605469 "/>
<path style=" stroke:none;fill-rule:nonzero;fill:rgb(4.313725%,14.901961%,39.607843%);fill-opacity:1;" d="M 127.992188 6.132812 C 129.21875 5.527344 130.722656 5.28125 132.023438 5.789062 C 132.769531 6.121094 133.050781 6.988281 133.101562 7.746094 C 133.1875 9.195312 133.226562 10.667969 133.007812 12.105469 C 132.589844 12.101562 132.175781 12.097656 131.761719 12.09375 C 131.714844 11.902344 131.671875 11.707031 131.632812 11.511719 C 130.917969 12.015625 130.074219 12.503906 129.160156 12.234375 C 128.589844 12.023438 127.917969 11.710938 127.773438 11.058594 C 127.691406 10.476562 127.59375 9.777344 127.960938 9.269531 C 128.769531 8.164062 130.3125 8.4375 131.476562 8.277344 C 131.371094 7.816406 131.402344 7.125 130.859375 6.945312 C 129.894531 6.648438 128.984375 7.148438 128.058594 7.351562 C 128.03125 6.945312 128.011719 6.539062 127.992188 6.132812 M 129.324219 9.851562 C 129.226562 10.238281 129.222656 10.765625 129.597656 10.996094 C 130.03125 11.210938 130.609375 11.152344 130.972656 10.816406 C 131.558594 10.550781 131.457031 9.832031 131.464844 9.324219 C 130.753906 9.386719 129.84375 9.242188 129.324219 9.851562 Z M 129.324219 9.851562 "/>
<path style=" stroke:none;fill-rule:nonzero;fill:rgb(4.313725%,14.901961%,39.607843%);fill-opacity:1;" d="M 33.210938 5.605469 C 33.734375 5.652344 34.265625 5.660156 34.777344 5.777344 C 34.78125 7.179688 34.703125 8.589844 34.804688 9.988281 C 34.855469 10.5625 35.484375 10.921875 36.019531 10.78125 C 36.382812 10.574219 36.742188 10.3125 36.960938 9.949219 C 37.132812 8.511719 36.929688 7.042969 37.191406 5.613281 C 37.703125 5.65625 38.222656 5.664062 38.726562 5.777344 C 38.683594 7.808594 38.785156 9.84375 38.683594 11.875 C 38.390625 12.296875 37.773438 11.984375 37.339844 12.042969 C 37.339844 11.859375 37.332031 11.488281 37.332031 11.304688 C 36.695312 11.734375 36.070312 12.308594 35.257812 12.289062 C 34.550781 12.367188 33.917969 11.921875 33.441406 11.449219 C 32.984375 10.582031 33.097656 9.574219 33.066406 8.628906 C 33.101562 7.621094 33.011719 6.597656 33.210938 5.605469 Z M 33.210938 5.605469 "/>
<path style=" stroke:none;fill-rule:nonzero;fill:rgb(4.313725%,14.901961%,39.607843%);fill-opacity:1;" d="M 109.4375 5.804688 C 110 5.730469 110.566406 5.695312 111.136719 5.699219 C 111.273438 7.789062 111.199219 9.886719 111.21875 11.976562 C 110.625 12.035156 110.019531 12.082031 109.425781 11.984375 C 109.441406 9.925781 109.433594 7.863281 109.4375 5.804688 Z M 109.4375 5.804688 "/>
<path style=" stroke:none;fill-rule:nonzero;fill:rgb(4.313725%,14.901961%,39.607843%);fill-opacity:1;" d="M 124.796875 5.589844 C 125.28125 5.726562 126.085938 5.421875 126.382812 5.988281 C 126.476562 7.292969 126.425781 8.609375 126.441406 9.917969 C 126.398438 10.664062 126.554688 11.476562 126.175781 12.160156 C 125.683594 12.027344 124.890625 12.332031 124.59375 11.765625 C 124.496094 10.457031 124.546875 9.144531 124.535156 7.835938 C 124.570312 7.089844 124.421875 6.277344 124.796875 5.589844 Z M 124.796875 5.589844 "/>
<path style=" stroke:none;fill-rule:nonzero;fill:rgb(4.313725%,14.901961%,39.607843%);fill-opacity:1;" d="M 13.65625 19.292969 C 14.175781 19.339844 14.707031 19.34375 15.21875 19.464844 C 15.1875 22.484375 15.25 25.507812 15.179688 28.527344 C 14.730469 28.542969 14.277344 28.554688 13.828125 28.566406 C 13.792969 28.347656 13.761719 28.132812 13.734375 27.914062 C 13.148438 28.335938 12.5 28.75 11.75 28.746094 C 11.035156 28.855469 10.351562 28.472656 9.886719 27.960938 C 9.082031 26.894531 9.242188 25.484375 9.335938 24.238281 C 9.488281 23.054688 10.496094 21.953125 11.753906 22.023438 C 12.429688 21.953125 12.984375 22.371094 13.519531 22.707031 C 13.554688 21.570312 13.457031 20.417969 13.65625 19.292969 M 11.246094 24.089844 C 10.703125 24.953125 10.808594 26.132812 11.394531 26.945312 C 12.035156 27.617188 13.113281 27.074219 13.488281 26.359375 C 13.5625 25.675781 13.535156 24.988281 13.546875 24.304688 C 13.144531 24.007812 12.792969 23.515625 12.25 23.5 C 11.792969 23.390625 11.414062 23.695312 11.246094 24.089844 Z M 11.246094 24.089844 "/>
<path style=" stroke:none;fill-rule:nonzero;fill:rgb(4.313725%,14.901961%,39.607843%);fill-opacity:1;" d="M 39.3125 19.488281 C 39.871094 19.417969 40.4375 19.382812 41 19.386719 C 41.144531 21.320312 41.074219 23.257812 41.097656 25.191406 C 41.078125 26.324219 41.140625 27.46875 40.957031 28.589844 C 40.40625 28.566406 39.859375 28.5625 39.316406 28.496094 C 39.304688 25.492188 39.3125 22.488281 39.3125 19.488281 Z M 39.3125 19.488281 "/>
<path style=" stroke:none;fill-rule:nonzero;fill:rgb(4.313725%,14.901961%,39.607843%);fill-opacity:1;" d="M 88.378906 19.714844 C 89.007812 19.632812 89.828125 19.347656 90.257812 19.972656 C 90.269531 20.398438 90.414062 21.152344 89.84375 21.289062 C 89.390625 21.300781 88.773438 21.5 88.429688 21.09375 C 88.28125 20.652344 88.355469 20.171875 88.378906 19.714844 Z M 88.378906 19.714844 "/>
<path style=" stroke:none;fill-rule:nonzero;fill:rgb(4.313725%,14.901961%,39.607843%);fill-opacity:1;" d="M 109.921875 19.785156 C 110.546875 19.527344 111.253906 19.511719 111.871094 19.796875 C 111.722656 20.234375 112.023438 20.964844 111.519531 21.234375 C 110.996094 21.433594 110.414062 21.289062 109.914062 21.089844 C 109.914062 20.652344 109.917969 20.21875 109.921875 19.785156 Z M 109.921875 19.785156 "/>
<path style=" stroke:none;fill-rule:nonzero;fill:rgb(4.313725%,14.901961%,39.607843%);fill-opacity:1;" d="M 26.191406 20.066406 C 28.195312 20.023438 30.199219 20.015625 32.203125 20.027344 C 32.386719 20.035156 32.621094 20.023438 32.699219 20.226562 C 32.863281 20.644531 32.75 21.109375 32.660156 21.53125 C 31.882812 21.527344 31.101562 21.523438 30.324219 21.523438 C 30.320312 23.847656 30.324219 26.171875 30.320312 28.496094 C 29.730469 28.519531 29.136719 28.5625 28.546875 28.507812 C 28.53125 26.191406 28.570312 23.875 28.523438 21.558594 C 27.75 21.53125 26.976562 21.519531 26.203125 21.492188 C 26.199219 21.015625 26.191406 20.542969 26.191406 20.066406 Z M 26.191406 20.066406 "/>
<path style=" stroke:none;fill-rule:nonzero;fill:rgb(4.313725%,14.901961%,39.607843%);fill-opacity:1;" d="M 17.203125 23.125 C 18.335938 21.550781 21.015625 21.640625 22.089844 23.234375 C 22.371094 23.878906 22.484375 24.589844 22.425781 25.292969 C 22.390625 25.648438 21.972656 25.886719 21.632812 25.773438 C 20.484375 25.820312 19.332031 25.78125 18.183594 25.796875 C 18.367188 26.355469 18.515625 27.082031 19.140625 27.308594 C 20.128906 27.714844 21.148438 27.265625 22.113281 27.046875 C 22.117188 27.492188 22.125 27.945312 22.128906 28.394531 C 21.105469 28.679688 20.039062 28.84375 18.976562 28.742188 C 17.800781 28.601562 16.703125 27.613281 16.683594 26.378906 C 16.59375 25.28125 16.496094 24.0625 17.203125 23.125 M 19.300781 23.15625 C 18.660156 23.300781 18.378906 24.015625 18.167969 24.570312 C 19.027344 24.589844 19.890625 24.59375 20.75 24.597656 C 20.71875 24.25 20.683594 23.90625 20.652344 23.558594 C 20.230469 23.355469 19.816406 22.964844 19.300781 23.15625 Z M 19.300781 23.15625 "/>
<path style=" stroke:none;fill-rule:nonzero;fill:rgb(4.313725%,14.901961%,39.607843%);fill-opacity:1;" d="M 33.21875 22.636719 C 34.5625 21.613281 36.925781 21.796875 37.691406 23.433594 C 37.953125 24.1875 37.90625 25.011719 37.804688 25.792969 C 36.472656 25.785156 35.136719 25.785156 33.804688 25.789062 C 33.835938 26.261719 33.886719 26.835938 34.335938 27.113281 C 35.261719 27.800781 36.507812 27.378906 37.488281 27.058594 C 37.585938 27.144531 37.683594 27.230469 37.78125 27.316406 C 37.671875 27.648438 37.847656 28.269531 37.425781 28.445312 C 36.570312 28.730469 35.65625 28.769531 34.765625 28.765625 C 33.824219 28.710938 32.851562 28.226562 32.441406 27.34375 C 32.097656 26.515625 32.058594 25.59375 32.125 24.707031 C 32.289062 23.945312 32.542969 23.101562 33.21875 22.636719 M 34.347656 23.382812 C 34.027344 23.703125 33.902344 24.15625 33.75 24.570312 C 34.625 24.589844 35.496094 24.59375 36.371094 24.59375 C 36.238281 24.179688 36.25 23.667969 35.867188 23.394531 C 35.457031 23.003906 34.769531 23.03125 34.347656 23.382812 Z M 34.347656 23.382812 "/>
<path style=" stroke:none;fill-rule:nonzero;fill:rgb(4.313725%,14.901961%,39.607843%);fill-opacity:1;" d="M 42.980469 23.125 C 44.113281 21.550781 46.792969 21.640625 47.867188 23.234375 C 48.152344 23.878906 48.261719 24.589844 48.203125 25.292969 C 48.171875 25.648438 47.75 25.886719 47.410156 25.773438 C 46.261719 25.820312 45.113281 25.78125 43.960938 25.796875 C 44.144531 26.355469 44.296875 27.082031 44.917969 27.308594 C 45.910156 27.714844 46.925781 27.265625 47.894531 27.046875 C 47.898438 27.492188 47.902344 27.945312 47.90625 28.394531 C 46.886719 28.679688 45.816406 28.84375 44.753906 28.742188 C 43.582031 28.601562 42.480469 27.613281 42.464844 26.378906 C 42.371094 25.28125 42.277344 24.0625 42.980469 23.125 M 45.082031 23.15625 C 44.4375 23.300781 44.15625 24.015625 43.945312 24.570312 C 44.808594 24.589844 45.667969 24.59375 46.53125 24.597656 C 46.496094 24.25 46.460938 23.90625 46.433594 23.558594 C 46.007812 23.355469 45.597656 22.964844 45.082031 23.15625 Z M 45.082031 23.15625 "/>
<path style=" stroke:none;fill-rule:nonzero;fill:rgb(4.313725%,14.901961%,39.607843%);fill-opacity:1;" d="M 50.589844 22.429688 C 51.234375 22.078125 52 21.9375 52.726562 22.046875 C 53.273438 22.160156 53.726562 22.507812 54.179688 22.808594 C 54.140625 23.230469 54.078125 23.652344 53.949219 24.058594 C 53.351562 23.707031 52.734375 23.191406 51.992188 23.351562 C 50.933594 23.71875 50.84375 25.128906 51.007812 26.050781 C 51.167969 26.539062 51.46875 27.089844 52.003906 27.214844 C 52.769531 27.445312 53.414062 26.867188 54.046875 26.546875 C 54.039062 27.132812 54.355469 27.914062 53.773438 28.3125 C 52.636719 28.988281 51.007812 28.976562 50.035156 28.007812 C 49.285156 27.195312 49.296875 26.027344 49.292969 24.996094 C 49.3125 24.003906 49.746094 22.984375 50.589844 22.429688 Z M 50.589844 22.429688 "/>
<path style=" stroke:none;fill-rule:nonzero;fill:rgb(4.313725%,14.901961%,39.607843%);fill-opacity:1;" d="M 57.429688 22.066406 C 58.492188 21.917969 59.714844 22.039062 60.519531 22.839844 C 61.207031 23.515625 61.246094 24.570312 61.292969 25.476562 C 61.230469 26.367188 61.03125 27.339844 60.347656 27.972656 C 59.230469 28.898438 57.550781 29.019531 56.257812 28.398438 C 55.523438 27.976562 55.042969 27.183594 54.980469 26.335938 C 54.714844 24.96875 54.992188 23.175781 56.328125 22.453125 C 56.664062 22.257812 57.046875 22.144531 57.429688 22.066406 M 57.734375 23.375 C 56.601562 23.59375 56.5625 25.082031 56.703125 25.984375 C 56.644531 26.855469 57.484375 27.65625 58.355469 27.464844 C 59.175781 27.238281 59.65625 26.308594 59.566406 25.488281 C 59.566406 24.957031 59.550781 24.386719 59.242188 23.929688 C 58.960938 23.40625 58.292969 23.164062 57.734375 23.375 Z M 57.734375 23.375 "/>
<path style=" stroke:none;fill-rule:nonzero;fill:rgb(4.313725%,14.901961%,39.607843%);fill-opacity:1;" d="M 64.128906 23.035156 C 64.660156 22.515625 65.292969 22.019531 66.082031 22.039062 C 66.855469 21.933594 67.515625 22.417969 67.957031 23.003906 C 68.425781 22.644531 68.878906 22.1875 69.480469 22.082031 C 70.214844 21.910156 71.132812 22.066406 71.574219 22.738281 C 72.074219 23.375 72.015625 24.234375 72.089844 24.996094 C 72.09375 26.191406 72.21875 27.414062 71.980469 28.59375 C 71.425781 28.570312 70.875 28.5625 70.324219 28.496094 C 70.316406 27.128906 70.359375 25.761719 70.324219 24.394531 C 70.316406 24.039062 70.136719 23.664062 69.792969 23.535156 C 69.171875 23.347656 68.558594 23.808594 68.304688 24.339844 C 68.183594 25.722656 68.261719 27.113281 68.25 28.5 C 67.652344 28.519531 67.046875 28.574219 66.457031 28.453125 C 66.46875 27.097656 66.507812 25.746094 66.476562 24.390625 C 66.480469 24.039062 66.292969 23.648438 65.941406 23.535156 C 65.261719 23.335938 64.625 23.867188 64.367188 24.449219 C 64.226562 25.789062 64.3125 27.144531 64.296875 28.492188 C 63.738281 28.515625 63.179688 28.546875 62.625 28.507812 C 62.621094 26.421875 62.601562 24.335938 62.644531 22.246094 C 63.109375 22.242188 63.582031 22.230469 64.050781 22.234375 C 64.078125 22.5 64.101562 22.769531 64.128906 23.035156 Z M 64.128906 23.035156 "/>
<path style=" stroke:none;fill-rule:nonzero;fill:rgb(4.313725%,14.901961%,39.607843%);fill-opacity:1;" d="M 82.578125 23.003906 C 83.140625 22.53125 83.761719 21.996094 84.550781 22.027344 C 85.582031 21.878906 86.558594 22.695312 86.71875 23.703125 C 86.917969 25.289062 86.796875 26.894531 86.816406 28.488281 C 86.265625 28.519531 85.71875 28.550781 85.171875 28.554688 C 85.003906 26.953125 85.46875 25.253906 84.820312 23.726562 C 84.195312 23.230469 83.164062 23.597656 82.921875 24.339844 C 82.804688 25.671875 82.878906 27.011719 82.859375 28.347656 C 82.785156 28.414062 82.714844 28.484375 82.644531 28.554688 C 82.136719 28.546875 81.628906 28.539062 81.121094 28.53125 C 81.070312 26.4375 81.074219 24.339844 81.113281 22.246094 C 81.582031 22.242188 82.054688 22.234375 82.527344 22.234375 C 82.542969 22.488281 82.558594 22.746094 82.578125 23.003906 Z M 82.578125 23.003906 "/>
<path style=" stroke:none;fill-rule:nonzero;fill:rgb(4.313725%,14.901961%,39.607843%);fill-opacity:1;" d="M 92.964844 22.34375 C 93.753906 22.015625 94.699219 21.855469 95.511719 22.214844 C 95.78125 22.316406 96.164062 22.425781 96.257812 22.746094 C 96.28125 23.183594 96.277344 23.625 96.246094 24.0625 C 95.625 23.773438 95.070312 23.230469 94.339844 23.316406 C 93.542969 23.476562 93.21875 24.363281 93.242188 25.09375 C 93.167969 25.859375 93.304688 26.863281 94.125 27.179688 C 94.921875 27.519531 95.652344 26.894531 96.316406 26.542969 C 96.160156 27.109375 96.578125 28.042969 95.933594 28.394531 C 94.730469 28.984375 92.996094 28.957031 92.132812 27.792969 C 91.445312 26.894531 91.53125 25.65625 91.558594 24.59375 C 91.636719 23.664062 92.1875 22.839844 92.964844 22.34375 Z M 92.964844 22.34375 "/>
<path style=" stroke:none;fill-rule:nonzero;fill:rgb(4.313725%,14.901961%,39.607843%);fill-opacity:1;" d="M 99.039062 22.101562 C 99.765625 22.039062 100.554688 21.871094 101.25 22.191406 C 101.863281 22.355469 102.414062 22.894531 102.472656 23.546875 C 102.589844 25.203125 102.519531 26.867188 102.492188 28.527344 C 102.066406 28.539062 101.648438 28.554688 101.226562 28.570312 C 101.183594 28.398438 101.140625 28.230469 101.101562 28.058594 C 100.570312 28.390625 100.015625 28.761719 99.359375 28.75 C 98.632812 28.839844 97.875 28.507812 97.421875 27.9375 C 97.125 27.519531 97.214844 26.957031 97.175781 26.476562 C 97.148438 25.871094 97.660156 25.421875 98.15625 25.171875 C 99.054688 24.761719 100.0625 24.824219 101.019531 24.765625 C 100.960938 24.253906 100.851562 23.566406 100.285156 23.371094 C 99.398438 23.175781 98.554688 23.542969 97.726562 23.808594 C 97.628906 23.726562 97.527344 23.644531 97.429688 23.566406 C 97.507812 23.222656 97.40625 22.722656 97.757812 22.492188 C 98.136719 22.242188 98.601562 22.1875 99.039062 22.101562 M 99.113281 26.039062 C 98.601562 26.351562 98.703125 27.171875 99.128906 27.507812 C 99.652344 27.703125 100.324219 27.550781 100.675781 27.101562 C 101.054688 26.769531 100.882812 26.191406 101 25.761719 C 100.371094 25.824219 99.691406 25.746094 99.113281 26.039062 Z M 99.113281 26.039062 "/>
<path style=" stroke:none;fill-rule:nonzero;fill:rgb(4.313725%,14.901961%,39.607843%);fill-opacity:1;" d="M 105.269531 22.398438 C 106.21875 21.914062 107.4375 21.828125 108.363281 22.410156 C 108.871094 22.816406 108.734375 23.496094 108.667969 24.066406 C 108.082031 23.777344 107.558594 23.285156 106.863281 23.316406 C 106.320312 23.324219 105.871094 23.769531 105.777344 24.296875 C 105.660156 25.085938 105.535156 25.984375 105.949219 26.714844 C 106.183594 27.179688 106.78125 27.308594 107.257812 27.253906 C 107.777344 27.132812 108.214844 26.796875 108.691406 26.566406 C 108.832031 27.210938 109.046875 28.035156 108.324219 28.429688 C 107.199219 28.890625 105.71875 28.980469 104.78125 28.082031 C 103.867188 27.222656 103.867188 25.863281 103.925781 24.707031 C 104.046875 23.808594 104.496094 22.902344 105.269531 22.398438 Z M 105.269531 22.398438 "/>
<path style=" stroke:none;fill-rule:nonzero;fill:rgb(4.313725%,14.901961%,39.607843%);fill-opacity:1;" d="M 115.605469 22.066406 C 116.832031 21.871094 118.320312 22.167969 119.007812 23.3125 C 119.617188 24.988281 119.636719 27.316406 117.953125 28.382812 C 116.734375 28.890625 115.1875 28.960938 114.066406 28.1875 C 113.394531 27.722656 113.152344 26.859375 113.097656 26.085938 C 113.050781 25.226562 112.976562 24.320312 113.429688 23.542969 C 113.78125 22.667969 114.722656 22.207031 115.605469 22.066406 M 115.808594 23.375 C 115.535156 23.445312 115.242188 23.570312 115.109375 23.835938 C 114.625 24.6875 114.5625 25.78125 114.972656 26.667969 C 115.222656 27.234375 115.886719 27.636719 116.503906 27.421875 C 117.128906 27.296875 117.570312 26.691406 117.609375 26.066406 C 117.617188 25.351562 117.75 24.539062 117.332031 23.902344 C 117.03125 23.394531 116.363281 23.175781 115.808594 23.375 Z M 115.808594 23.375 "/>
<path style=" stroke:none;fill-rule:nonzero;fill:rgb(4.313725%,14.901961%,39.607843%);fill-opacity:1;" d="M 122.222656 22.949219 C 122.800781 22.53125 123.398438 22.023438 124.15625 22.03125 C 125.328125 21.824219 126.441406 22.945312 126.40625 24.101562 C 126.464844 25.578125 126.4375 27.0625 126.402344 28.539062 C 125.847656 28.539062 125.300781 28.5625 124.75 28.503906 C 124.734375 27.136719 124.804688 25.773438 124.710938 24.410156 C 124.605469 24.082031 124.503906 23.628906 124.117188 23.539062 C 123.460938 23.351562 122.816406 23.777344 122.53125 24.34375 C 122.40625 25.722656 122.484375 27.113281 122.472656 28.5 C 121.875 28.519531 121.273438 28.574219 120.683594 28.453125 C 120.703125 26.449219 120.6875 24.441406 120.710938 22.4375 C 120.777344 22.367188 120.847656 22.300781 120.917969 22.230469 C 121.300781 22.226562 121.6875 22.222656 122.074219 22.214844 C 122.125 22.460938 122.171875 22.703125 122.222656 22.949219 Z M 122.222656 22.949219 "/>
<path style=" stroke:none;fill-rule:nonzero;fill:rgb(4.313725%,14.901961%,39.607843%);fill-opacity:1;" d="M 128.550781 22.863281 C 129.738281 21.699219 131.980469 21.664062 133.046875 23 C 133.566406 23.738281 133.585938 24.699219 133.695312 25.554688 C 132.304688 25.953125 130.835938 25.75 129.410156 25.792969 C 129.507812 26.300781 129.566406 26.992188 130.117188 27.238281 C 131.089844 27.726562 132.191406 27.289062 133.191406 27.074219 C 133.207031 27.511719 133.230469 27.953125 133.253906 28.390625 C 131.738281 28.785156 129.929688 29.140625 128.617188 28.050781 C 127.976562 27.53125 127.847656 26.707031 127.777344 25.9375 C 127.703125 24.875 127.847656 23.710938 128.550781 22.863281 M 130.347656 23.175781 C 129.753906 23.367188 129.519531 24.027344 129.382812 24.578125 C 130.261719 24.589844 131.144531 24.59375 132.03125 24.585938 C 131.902344 24.234375 131.832031 23.847656 131.625 23.53125 C 131.320312 23.175781 130.800781 22.980469 130.347656 23.175781 Z M 130.347656 23.175781 "/>
<path style=" stroke:none;fill-rule:nonzero;fill:rgb(4.313725%,14.901961%,39.607843%);fill-opacity:1;" d="M 135.378906 22.472656 C 136.355469 21.886719 137.675781 21.824219 138.65625 22.433594 C 138.941406 22.761719 138.808594 23.25 138.835938 23.652344 C 138.195312 23.457031 137.585938 23.109375 136.898438 23.109375 C 136.5 23.171875 136.160156 23.570312 136.203125 23.980469 C 136.789062 24.652344 137.753906 24.703125 138.4375 25.234375 C 139.511719 25.847656 139.339844 27.542969 138.46875 28.257812 C 137.375 28.910156 135.941406 28.914062 134.800781 28.378906 C 134.515625 28.023438 134.679688 27.46875 134.6875 27.035156 C 135.378906 27.347656 136.089844 27.6875 136.882812 27.554688 C 137.296875 27.535156 137.640625 27.117188 137.578125 26.707031 C 137.050781 25.953125 136.0625 25.941406 135.378906 25.410156 C 134.34375 24.800781 134.390625 23.101562 135.378906 22.472656 Z M 135.378906 22.472656 "/>
<path style=" stroke:none;fill-rule:nonzero;fill:rgb(4.313725%,14.901961%,39.607843%);fill-opacity:1;" d="M 73.746094 22.21875 C 74.121094 22.21875 74.867188 22.226562 75.238281 22.230469 C 75.308594 22.300781 75.378906 22.367188 75.449219 22.4375 C 75.464844 23.753906 75.421875 25.070312 75.46875 26.386719 C 75.480469 26.929688 76.058594 27.417969 76.601562 27.214844 C 77.046875 27.074219 77.464844 26.761719 77.675781 26.339844 C 77.796875 24.976562 77.714844 23.605469 77.757812 22.238281 C 78.304688 22.238281 78.859375 22.21875 79.410156 22.277344 C 79.414062 24.347656 79.414062 26.421875 79.410156 28.492188 C 78.917969 28.503906 78.429688 28.511719 77.941406 28.507812 C 77.933594 28.316406 77.917969 27.9375 77.910156 27.746094 C 77.210938 28.507812 76.15625 29.03125 75.113281 28.648438 C 74.25 28.445312 73.785156 27.546875 73.738281 26.714844 C 73.636719 25.21875 73.640625 23.710938 73.746094 22.21875 Z M 73.746094 22.21875 "/>
<path style=" stroke:none;fill-rule:nonzero;fill:rgb(4.313725%,14.901961%,39.607843%);fill-opacity:1;" d="M 88.398438 22.28125 C 88.996094 22.261719 89.601562 22.207031 90.1875 22.328125 C 90.171875 24.328125 90.183594 26.335938 90.164062 28.339844 C 90.09375 28.414062 90.023438 28.492188 89.953125 28.570312 C 89.433594 28.554688 88.917969 28.558594 88.402344 28.5 C 88.394531 26.425781 88.398438 24.351562 88.398438 22.28125 Z M 88.398438 22.28125 "/>
<path style=" stroke:none;fill-rule:nonzero;fill:rgb(4.313725%,14.901961%,39.607843%);fill-opacity:1;" d="M 109.925781 22.34375 C 110.550781 22.269531 111.195312 22.195312 111.816406 22.339844 C 111.800781 24.339844 111.816406 26.339844 111.796875 28.34375 C 111.726562 28.410156 111.65625 28.480469 111.585938 28.550781 C 111.226562 28.550781 110.511719 28.550781 110.152344 28.550781 C 110.082031 28.480469 110.011719 28.410156 109.941406 28.34375 C 109.921875 26.34375 109.933594 24.339844 109.925781 22.34375 Z M 109.925781 22.34375 "/>
<path style=" stroke:none;fill-rule:nonzero;fill:rgb(4.313725%,14.901961%,39.607843%);fill-opacity:1;" d="M 80.289062 39.457031 C 82.019531 38.773438 84.03125 38.667969 85.75 39.441406 C 86.171875 39.652344 86.648438 39.871094 86.871094 40.3125 C 86.964844 41.109375 86.949219 41.9375 86.753906 42.722656 C 86.035156 42.390625 85.433594 41.839844 84.667969 41.609375 C 83.839844 41.347656 82.921875 41.261719 82.09375 41.554688 C 81.21875 41.847656 80.558594 42.585938 80.179688 43.410156 C 79.59375 44.683594 79.566406 46.140625 79.695312 47.511719 C 79.761719 48.5625 80.207031 49.585938 80.925781 50.351562 C 81.808594 51.226562 83.15625 51.292969 84.316406 51.136719 C 85.226562 50.925781 85.988281 50.363281 86.84375 50.011719 C 86.960938 50.554688 87.007812 51.113281 87.011719 51.671875 C 86.980469 52.074219 86.898438 52.542969 86.507812 52.75 C 85.078125 53.621094 83.324219 53.84375 81.683594 53.640625 C 80.328125 53.457031 79.003906 52.847656 78.113281 51.785156 C 77.28125 50.808594 76.761719 49.574219 76.632812 48.296875 C 76.296875 46.125 76.480469 43.769531 77.628906 41.84375 C 78.199219 40.769531 79.183594 39.941406 80.289062 39.457031 Z M 80.289062 39.457031 "/>
<path style=" stroke:none;fill-rule:nonzero;fill:rgb(4.313725%,14.901961%,39.607843%);fill-opacity:1;" d="M 62.652344 39.207031 C 63.515625 38.980469 64.417969 39.117188 65.285156 39.25 C 65.292969 41.738281 65.285156 44.226562 65.277344 46.714844 C 65.300781 47.757812 65.242188 48.851562 65.644531 49.839844 C 66.382812 51.265625 68.375 51.800781 69.746094 50.992188 C 70.871094 50.449219 71.226562 49.058594 71.210938 47.90625 C 71.234375 45.019531 71.199219 42.136719 71.214844 39.253906 C 72.164062 39.085938 73.160156 38.960938 74.085938 39.3125 C 74.050781 42.308594 74.109375 45.304688 74.066406 48.300781 C 73.976562 49.347656 73.855469 50.449219 73.265625 51.347656 C 72.5625 52.480469 71.351562 53.277344 70.046875 53.511719 C 68.675781 53.832031 67.242188 53.796875 65.878906 53.445312 C 64.238281 53.023438 62.863281 51.621094 62.589844 49.921875 C 62.097656 46.925781 62.414062 43.878906 62.308594 40.859375 C 62.382812 40.335938 62.128906 39.570312 62.652344 39.207031 Z M 62.652344 39.207031 "/>
</g>
</svg>
