<?xml version="1.0" encoding="UTF-8"?>
<svg xmlns="http://www.w3.org/2000/svg" xmlns:xlink="http://www.w3.org/1999/xlink" width="151pt" height="58pt" viewBox="0 0 151 58" version="1.1">
<g id="surface1">
<path style=" stroke:none;fill-rule:nonzero;fill:rgb(4.313725%,14.901961%,39.607843%);fill-opacity:1;" d="M 124.453125 2.597656 C 124.964844 2.65625 125.507812 2.648438 125.992188 2.863281 C 125.542969 3.425781 125.109375 3.996094 124.636719 4.527344 C 124.265625 4.953125 123.636719 4.742188 123.144531 4.804688 C 123.476562 4.007812 124.003906 3.320312 124.453125 2.597656 Z M 124.453125 2.597656 "/>
<path style=" stroke:none;fill-rule:nonzero;fill:rgb(4.313725%,14.901961%,39.607843%);fill-opacity:1;" d="M 46.921875 2.859375 C 47.390625 2.859375 47.867188 2.859375 48.335938 2.855469 C 48.480469 5.898438 48.410156 8.945312 48.382812 11.988281 C 47.882812 11.996094 47.382812 12.011719 46.882812 12 C 46.847656 8.953125 46.785156 5.90625 46.921875 2.859375 Z M 46.921875 2.859375 "/>
<path style=" stroke:none;fill-rule:nonzero;fill:rgb(4.313725%,14.901961%,39.607843%);fill-opacity:1;" d="M 63.8125 2.914062 C 64.375 2.917969 64.945312 2.890625 65.496094 2.996094 C 65.488281 5.3125 65.496094 7.632812 65.503906 9.945312 C 65.476562 10.636719 65.535156 11.347656 65.359375 12.023438 C 65.066406 12.023438 64.484375 12.023438 64.191406 12.023438 C 64.121094 11.757812 64.054688 11.492188 63.996094 11.230469 C 63.5625 11.667969 63.027344 11.988281 62.4375 12.175781 C 61.46875 12.394531 60.425781 11.886719 59.941406 11.03125 C 59.605469 10.300781 59.507812 9.472656 59.476562 8.683594 C 59.625 7.6875 59.792969 6.496094 60.699219 5.894531 C 61.148438 5.472656 61.804688 5.519531 62.375 5.507812 C 62.894531 5.496094 63.300781 5.871094 63.710938 6.140625 C 63.730469 5.0625 63.738281 3.988281 63.8125 2.914062 M 61.644531 7.347656 C 61.097656 8.007812 61.308594 8.929688 61.339844 9.710938 C 61.371094 10.1875 61.734375 10.609375 62.1875 10.722656 C 62.816406 10.785156 63.433594 10.402344 63.707031 9.835938 C 63.789062 9.125 63.730469 8.40625 63.742188 7.691406 C 63.402344 7.4375 63.089844 7.089844 62.660156 7 C 62.3125 6.992188 61.832031 6.980469 61.644531 7.347656 Z M 61.644531 7.347656 "/>
<path style=" stroke:none;fill-rule:nonzero;fill:rgb(4.313725%,14.901961%,39.607843%);fill-opacity:1;" d="M 108.160156 3.359375 C 108.242188 3.039062 108.691406 3.058594 108.933594 3.046875 C 109.242188 3.015625 109.820312 2.996094 109.921875 3.414062 C 109.964844 3.6875 110.0625 4.242188 110.109375 4.515625 C 109.472656 4.746094 108.777344 4.917969 108.128906 4.65625 C 108.121094 4.226562 108.042969 3.78125 108.160156 3.359375 Z M 108.160156 3.359375 "/>
<path style=" stroke:none;fill-rule:nonzero;fill:rgb(4.313725%,14.901961%,39.607843%);fill-opacity:1;" d="M 15.347656 3.5625 C 16.976562 3.558594 18.609375 3.484375 20.234375 3.613281 C 20.175781 4.019531 20.132812 4.425781 20.066406 4.828125 C 19.039062 4.828125 18.011719 4.828125 16.984375 4.824219 C 16.980469 5.546875 16.984375 6.269531 16.984375 6.988281 C 17.878906 6.992188 18.78125 6.996094 19.679688 7.019531 C 19.6875 7.277344 19.703125 7.792969 19.707031 8.054688 C 19.636719 8.125 19.566406 8.191406 19.496094 8.257812 C 18.660156 8.269531 17.824219 8.273438 16.984375 8.277344 C 16.980469 9.097656 16.984375 9.914062 16.984375 10.734375 C 17.984375 10.734375 18.984375 10.738281 19.984375 10.75 C 20.070312 10.820312 20.152344 10.894531 20.238281 10.96875 C 20.207031 11.320312 20.160156 11.675781 20.074219 12.023438 C 18.585938 12.003906 17.101562 12.066406 15.613281 12.003906 C 15.257812 12.007812 15.03125 11.554688 15.140625 11.230469 C 15.09375 8.742188 15.140625 6.25 15.140625 3.757812 C 15.210938 3.691406 15.277344 3.628906 15.347656 3.5625 Z M 15.347656 3.5625 "/>
<path style=" stroke:none;fill-rule:nonzero;fill:rgb(4.313725%,14.901961%,39.607843%);fill-opacity:1;" d="M 77.132812 3.578125 C 77.664062 3.570312 78.199219 3.570312 78.738281 3.574219 C 78.761719 6.398438 78.839844 9.230469 78.703125 12.050781 C 78.164062 12.015625 77.628906 12.015625 77.101562 11.898438 C 77.128906 9.125 77.082031 6.351562 77.132812 3.578125 Z M 77.132812 3.578125 "/>
<path style=" stroke:none;fill-rule:nonzero;fill:rgb(4.313725%,14.901961%,39.607843%);fill-opacity:1;" d="M 22.742188 5.613281 C 23.6875 5.402344 24.746094 5.417969 25.53125 6.066406 C 25.488281 6.425781 25.453125 6.78125 25.398438 7.136719 C 24.761719 6.921875 24.140625 6.535156 23.4375 6.609375 C 22.886719 6.765625 22.75 7.472656 23.210938 7.792969 C 23.96875 8.28125 25.019531 8.367188 25.542969 9.1875 C 25.90625 9.894531 25.84375 10.863281 25.335938 11.480469 C 24.238281 12.433594 22.59375 12.394531 21.363281 11.726562 C 21.382812 11.328125 21.402344 10.925781 21.425781 10.527344 C 22.269531 10.917969 23.230469 11.191406 24.121094 10.800781 C 24.117188 10.503906 24.117188 10.210938 24.113281 9.914062 C 23.320312 9.441406 22.3125 9.28125 21.691406 8.542969 C 21.296875 8.117188 21.371094 7.457031 21.40625 6.925781 C 21.628906 6.324219 22.117188 5.789062 22.742188 5.613281 Z M 22.742188 5.613281 "/>
<path style=" stroke:none;fill-rule:nonzero;fill:rgb(4.313725%,14.901961%,39.607843%);fill-opacity:1;" d="M 26.988281 7.261719 C 27.496094 5.488281 30.015625 4.917969 31.351562 6.082031 C 31.601562 6.515625 31.453125 7.070312 31.429688 7.550781 C 30.816406 7.28125 30.289062 6.75 29.578125 6.792969 C 28.882812 6.898438 28.445312 7.601562 28.503906 8.273438 C 28.523438 9.007812 28.308594 10.09375 29.085938 10.535156 C 29.894531 11.078125 30.742188 10.402344 31.4375 10.015625 C 31.429688 10.527344 31.667969 11.121094 31.390625 11.582031 C 30.167969 12.558594 28.101562 12.425781 27.1875 11.074219 C 26.582031 9.917969 26.46875 8.476562 26.988281 7.261719 Z M 26.988281 7.261719 "/>
<path style=" stroke:none;fill-rule:nonzero;fill:rgb(4.313725%,14.901961%,39.607843%);fill-opacity:1;" d="M 41.679688 5.613281 C 42.566406 5.453125 43.609375 5.371094 44.386719 5.9375 C 45.0625 6.394531 45.390625 7.222656 45.441406 8.023438 C 45.542969 8.453125 45.429688 8.882812 45.246094 9.273438 C 43.953125 9.257812 42.660156 9.246094 41.371094 9.289062 C 41.4375 9.777344 41.46875 10.390625 41.964844 10.648438 C 42.886719 11.222656 44.023438 10.824219 44.96875 10.519531 C 45.035156 10.601562 45.097656 10.683594 45.167969 10.765625 C 45.179688 11.070312 45.199219 11.378906 45.210938 11.683594 C 43.667969 12.410156 41.570312 12.570312 40.285156 11.253906 C 39.707031 10.433594 39.574219 9.355469 39.640625 8.371094 C 39.777344 7.183594 40.453125 5.9375 41.679688 5.613281 M 41.871094 6.894531 C 41.5 7.160156 41.5 7.675781 41.328125 8.0625 C 42.1875 8.074219 43.050781 8.074219 43.910156 8.066406 C 43.78125 7.632812 43.726562 7.09375 43.324219 6.8125 C 42.90625 6.480469 42.261719 6.539062 41.871094 6.894531 Z M 41.871094 6.894531 "/>
<path style=" stroke:none;fill-rule:nonzero;fill:rgb(4.313725%,14.901961%,39.607843%);fill-opacity:1;" d="M 50.300781 6.042969 C 51.269531 5.386719 52.519531 5.480469 53.617188 5.578125 C 54.214844 5.707031 54.882812 6.082031 54.992188 6.738281 C 55.25 8.480469 55.183594 10.261719 55.085938 12.015625 C 54.804688 12.015625 54.238281 12.019531 53.953125 12.023438 C 53.875 11.828125 53.796875 11.628906 53.722656 11.433594 C 53.214844 11.796875 52.675781 12.195312 52.019531 12.199219 C 51.230469 12.292969 50.445312 11.839844 49.984375 11.214844 C 49.585938 10.410156 49.75 9.257812 50.566406 8.773438 C 51.453125 8.230469 52.5625 8.328125 53.546875 8.238281 C 53.417969 7.8125 53.609375 7.085938 53.050781 6.925781 C 52.09375 6.601562 51.152344 7.070312 50.242188 7.324219 C 50.234375 6.902344 50.066406 6.429688 50.300781 6.042969 M 51.863281 9.488281 C 51.316406 9.742188 51.285156 10.664062 51.824219 10.945312 C 52.300781 11.175781 52.917969 11 53.265625 10.605469 C 53.652344 10.269531 53.414062 9.660156 53.535156 9.226562 C 52.976562 9.300781 52.378906 9.238281 51.863281 9.488281 Z M 51.863281 9.488281 "/>
<path style=" stroke:none;fill-rule:nonzero;fill:rgb(4.313725%,14.901961%,39.607843%);fill-opacity:1;" d="M 67.78125 6.152344 C 68.515625 5.453125 69.601562 5.441406 70.542969 5.546875 C 71.355469 5.6875 72.078125 6.277344 72.34375 7.078125 C 72.523438 7.789062 72.503906 8.539062 72.402344 9.265625 C 71.082031 9.257812 69.761719 9.261719 68.445312 9.261719 C 68.476562 9.734375 68.527344 10.304688 68.972656 10.578125 C 69.894531 11.261719 71.128906 10.835938 72.101562 10.515625 C 72.167969 10.597656 72.238281 10.683594 72.300781 10.765625 C 72.308594 11.070312 72.332031 11.378906 72.347656 11.683594 C 70.835938 12.386719 68.808594 12.566406 67.496094 11.378906 C 66.429688 9.851562 66.476562 7.527344 67.78125 6.152344 M 68.980469 6.871094 C 68.664062 7.191406 68.542969 7.644531 68.394531 8.050781 C 69.257812 8.070312 70.121094 8.078125 70.980469 8.074219 C 70.851562 7.660156 70.867188 7.152344 70.484375 6.882812 C 70.082031 6.5 69.398438 6.523438 68.980469 6.871094 Z M 68.980469 6.871094 "/>
<path style=" stroke:none;fill-rule:nonzero;fill:rgb(4.313725%,14.901961%,39.607843%);fill-opacity:1;" d="M 83.414062 5.570312 C 84.042969 5.496094 84.773438 5.382812 85.3125 5.808594 C 85.953125 6.21875 86.140625 7.039062 86.222656 7.746094 C 86.339844 9.117188 86.28125 10.492188 86.285156 11.867188 C 85.699219 11.953125 85.097656 12.019531 84.511719 11.914062 C 84.519531 10.667969 84.566406 9.417969 84.515625 8.179688 C 84.457031 7.785156 84.429688 7.292969 84.046875 7.082031 C 83.433594 6.804688 82.636719 7.179688 82.367188 7.765625 C 82.195312 9.097656 82.304688 10.449219 82.269531 11.789062 C 82.195312 11.871094 82.125 11.957031 82.0625 12.042969 C 81.574219 12.003906 81.09375 12 80.617188 11.898438 C 80.640625 9.789062 80.570312 7.679688 80.691406 5.574219 C 81.085938 5.582031 81.480469 5.605469 81.875 5.644531 C 82.050781 5.875 82.050781 6.179688 82.125 6.453125 C 82.515625 6.109375 82.890625 5.675781 83.414062 5.570312 Z M 83.414062 5.570312 "/>
<path style=" stroke:none;fill-rule:nonzero;fill:rgb(4.313725%,14.901961%,39.607843%);fill-opacity:1;" d="M 87.621094 7.277344 C 87.789062 6.269531 88.769531 5.429688 89.800781 5.542969 C 90.894531 5.539062 91.980469 5.613281 93.074219 5.617188 C 93.164062 6.054688 93.175781 6.507812 93.109375 6.953125 C 92.835938 6.96875 92.574219 6.984375 92.3125 7 C 92.363281 7.609375 92.574219 8.289062 92.207031 8.835938 C 91.597656 9.953125 90.152344 10.117188 89.046875 9.777344 C 88.960938 9.917969 88.871094 10.0625 88.78125 10.203125 C 89.480469 10.695312 90.40625 10.449219 91.199219 10.621094 C 91.839844 10.761719 92.675781 10.886719 92.929688 11.609375 C 93.378906 12.292969 93.011719 13.144531 92.515625 13.675781 C 91.828125 14.410156 90.730469 14.449219 89.796875 14.476562 C 88.949219 14.503906 87.988281 14.316406 87.410156 13.640625 C 87.019531 12.898438 87.28125 11.984375 87.886719 11.460938 C 87.679688 11.050781 87.429688 10.636719 87.480469 10.160156 C 87.558594 9.789062 87.789062 9.472656 87.984375 9.160156 C 87.789062 8.558594 87.449219 7.925781 87.621094 7.277344 M 89.746094 6.648438 C 89.050781 6.886719 88.878906 7.851562 89.257812 8.429688 C 89.695312 8.976562 90.621094 8.828125 90.902344 8.203125 C 91.3125 7.449219 90.625 6.320312 89.746094 6.648438 M 89.125 11.667969 C 89.039062 12.078125 88.554688 12.753906 89.039062 13.082031 C 89.519531 13.4375 90.167969 13.292969 90.714844 13.246094 C 91.125 13.179688 91.28125 12.742188 91.519531 12.457031 C 91.425781 12.296875 91.246094 11.976562 91.15625 11.816406 C 90.480469 11.746094 89.796875 11.714844 89.125 11.667969 Z M 89.125 11.667969 "/>
<path style=" stroke:none;fill-rule:nonzero;fill:rgb(4.313725%,14.901961%,39.607843%);fill-opacity:1;" d="M 94.585938 6.410156 C 95.160156 5.679688 96.132812 5.4375 97.019531 5.507812 C 98.195312 5.414062 99.347656 6.375 99.492188 7.550781 C 99.554688 7.949219 99.601562 8.363281 99.5625 8.769531 C 99.53125 9.121094 99.117188 9.359375 98.78125 9.25 C 97.675781 9.292969 96.574219 9.261719 95.476562 9.265625 C 95.519531 9.898438 95.804688 10.628906 96.460938 10.824219 C 97.410156 11.117188 98.34375 10.71875 99.257812 10.507812 C 99.253906 10.9375 99.261719 11.367188 99.261719 11.792969 C 97.980469 12.214844 96.496094 12.492188 95.246094 11.84375 C 94.6875 11.570312 94.195312 11.089844 94.046875 10.464844 C 93.691406 9.125 93.667969 7.53125 94.585938 6.410156 M 96.40625 6.667969 C 95.804688 6.851562 95.554688 7.496094 95.488281 8.070312 C 96.292969 8.078125 97.101562 8.078125 97.90625 8.074219 C 97.871094 7.730469 97.839844 7.390625 97.8125 7.046875 C 97.378906 6.820312 96.933594 6.429688 96.40625 6.667969 Z M 96.40625 6.667969 "/>
<path style=" stroke:none;fill-rule:nonzero;fill:rgb(4.313725%,14.901961%,39.607843%);fill-opacity:1;" d="M 102.320312 6.53125 C 102.878906 6.070312 103.453125 5.453125 104.246094 5.515625 C 105.265625 5.285156 106.257812 6.050781 106.449219 7.050781 C 106.722656 8.644531 106.542969 10.28125 106.59375 11.890625 C 106.035156 11.949219 105.472656 11.980469 104.917969 11.917969 C 104.8125 10.359375 105.242188 8.699219 104.613281 7.210938 C 103.976562 6.699219 103.148438 7.15625 102.671875 7.660156 C 102.609375 9.121094 102.914062 10.664062 102.449219 12.082031 C 101.960938 11.945312 101.167969 12.25 100.871094 11.683594 C 100.773438 10.386719 100.824219 9.082031 100.8125 7.78125 C 100.851562 7.050781 100.699219 6.253906 101.066406 5.585938 C 101.453125 5.605469 101.847656 5.625 102.246094 5.648438 C 102.261719 5.945312 102.296875 6.238281 102.320312 6.53125 Z M 102.320312 6.53125 "/>
<path style=" stroke:none;fill-rule:nonzero;fill:rgb(4.313725%,14.901961%,39.607843%);fill-opacity:1;" d="M 113.054688 5.652344 C 114.105469 5.371094 115.355469 5.378906 116.214844 6.140625 C 116.96875 6.898438 116.925781 8.054688 116.949219 9.042969 C 116.867188 9.109375 116.789062 9.175781 116.710938 9.242188 C 115.40625 9.265625 114.101562 9.238281 112.800781 9.292969 C 112.890625 9.914062 113.191406 10.613281 113.835938 10.820312 C 114.789062 11.132812 115.738281 10.75 116.65625 10.515625 C 116.671875 10.949219 116.6875 11.378906 116.664062 11.804688 C 115.433594 12.179688 114.035156 12.472656 112.8125 11.941406 C 112.175781 11.675781 111.609375 11.144531 111.449219 10.453125 C 110.9375 8.78125 111.214844 6.375 113.054688 5.652344 M 113.859375 6.65625 C 113.25 6.804688 113.046875 7.5 112.777344 7.996094 C 113.628906 8.0625 114.484375 8.082031 115.34375 8.09375 C 115.277344 7.71875 115.21875 7.34375 115.171875 6.972656 C 114.746094 6.8125 114.339844 6.464844 113.859375 6.65625 Z M 113.859375 6.65625 "/>
<path style=" stroke:none;fill-rule:nonzero;fill:rgb(4.313725%,14.901961%,39.607843%);fill-opacity:1;" d="M 120.878906 5.566406 C 121.296875 5.535156 121.722656 5.578125 122.136719 5.628906 C 122.105469 6.175781 122.105469 6.730469 122.039062 7.277344 C 121.6875 7.226562 121.328125 7.152344 120.976562 7.160156 C 120.613281 7.347656 120.289062 7.648438 120.109375 8.023438 C 119.988281 9.222656 120.105469 10.429688 120.050781 11.625 C 120.074219 11.820312 119.890625 11.9375 119.730469 11.984375 C 119.242188 12.015625 118.765625 11.996094 118.292969 11.890625 C 118.335938 9.796875 118.183594 7.691406 118.429688 5.605469 C 118.722656 5.609375 119.300781 5.609375 119.589844 5.609375 C 119.679688 5.882812 119.730469 6.152344 119.824219 6.425781 C 120.148438 6.109375 120.441406 5.726562 120.878906 5.566406 Z M 120.878906 5.566406 "/>
<path style=" stroke:none;fill-rule:nonzero;fill:rgb(4.313725%,14.901961%,39.607843%);fill-opacity:1;" d="M 126.484375 6.089844 C 127.695312 5.488281 129.183594 5.246094 130.46875 5.75 C 131.207031 6.078125 131.484375 6.941406 131.535156 7.691406 C 131.617188 9.132812 131.65625 10.59375 131.441406 12.023438 C 131.027344 12.019531 130.617188 12.015625 130.210938 12.011719 C 130.164062 11.820312 130.121094 11.625 130.082031 11.433594 C 129.375 11.933594 128.542969 12.417969 127.636719 12.152344 C 127.074219 11.941406 126.410156 11.628906 126.269531 10.984375 C 126.1875 10.40625 126.089844 9.710938 126.453125 9.207031 C 127.253906 8.109375 128.777344 8.378906 129.929688 8.21875 C 129.824219 7.761719 129.855469 7.078125 129.316406 6.898438 C 128.363281 6.601562 127.464844 7.097656 126.550781 7.300781 C 126.523438 6.898438 126.503906 6.496094 126.484375 6.089844 M 127.800781 9.785156 C 127.703125 10.167969 127.699219 10.691406 128.070312 10.921875 C 128.5 11.132812 129.070312 11.074219 129.429688 10.742188 C 130.007812 10.476562 129.910156 9.765625 129.917969 9.261719 C 129.214844 9.324219 128.3125 9.179688 127.800781 9.785156 Z M 127.800781 9.785156 "/>
<path style=" stroke:none;fill-rule:nonzero;fill:rgb(4.313725%,14.901961%,39.607843%);fill-opacity:1;" d="M 32.820312 5.566406 C 33.335938 5.613281 33.863281 5.621094 34.367188 5.738281 C 34.371094 7.128906 34.292969 8.53125 34.394531 9.917969 C 34.445312 10.488281 35.066406 10.847656 35.59375 10.707031 C 35.953125 10.5 36.308594 10.242188 36.527344 9.882812 C 36.695312 8.453125 36.496094 6.996094 36.753906 5.574219 C 37.257812 5.617188 37.773438 5.625 38.269531 5.738281 C 38.226562 7.753906 38.328125 9.777344 38.226562 11.792969 C 37.9375 12.210938 37.328125 11.902344 36.898438 11.960938 C 36.898438 11.777344 36.890625 11.410156 36.890625 11.226562 C 36.261719 11.652344 35.644531 12.222656 34.84375 12.203125 C 34.144531 12.28125 33.519531 11.839844 33.046875 11.371094 C 32.597656 10.507812 32.707031 9.507812 32.675781 8.570312 C 32.710938 7.570312 32.621094 6.550781 32.820312 5.566406 Z M 32.820312 5.566406 "/>
<path style=" stroke:none;fill-rule:nonzero;fill:rgb(4.313725%,14.901961%,39.607843%);fill-opacity:1;" d="M 108.148438 5.765625 C 108.703125 5.691406 109.265625 5.65625 109.828125 5.660156 C 109.960938 7.734375 109.890625 9.820312 109.910156 11.894531 C 109.320312 11.953125 108.722656 12 108.136719 11.902344 C 108.152344 9.859375 108.144531 7.808594 108.148438 5.765625 Z M 108.148438 5.765625 "/>
<path style=" stroke:none;fill-rule:nonzero;fill:rgb(4.313725%,14.901961%,39.607843%);fill-opacity:1;" d="M 123.328125 5.550781 C 123.804688 5.6875 124.601562 5.382812 124.894531 5.945312 C 124.988281 7.242188 124.9375 8.550781 124.953125 9.851562 C 124.910156 10.589844 125.0625 11.398438 124.6875 12.078125 C 124.203125 11.945312 123.417969 12.246094 123.125 11.683594 C 123.03125 10.386719 123.078125 9.082031 123.066406 7.78125 C 123.101562 7.042969 122.957031 6.234375 123.328125 5.550781 Z M 123.328125 5.550781 "/>
<path style=" stroke:none;fill-rule:nonzero;fill:rgb(4.313725%,14.901961%,39.607843%);fill-opacity:1;" d="M 13.496094 19.160156 C 14.007812 19.207031 14.535156 19.210938 15.039062 19.332031 C 15.007812 22.332031 15.070312 25.332031 15 28.332031 C 14.558594 28.347656 14.109375 28.359375 13.664062 28.371094 C 13.628906 28.152344 13.597656 27.941406 13.574219 27.722656 C 12.992188 28.140625 12.351562 28.554688 11.613281 28.550781 C 10.90625 28.65625 10.230469 28.277344 9.769531 27.769531 C 8.976562 26.710938 9.132812 25.308594 9.226562 24.070312 C 9.375 22.898438 10.371094 21.804688 11.617188 21.871094 C 12.285156 21.804688 12.832031 22.21875 13.359375 22.550781 C 13.394531 21.421875 13.296875 20.277344 13.496094 19.160156 M 11.113281 23.925781 C 10.578125 24.78125 10.679688 25.953125 11.261719 26.761719 C 11.894531 27.429688 12.957031 26.890625 13.328125 26.179688 C 13.402344 25.5 13.375 24.816406 13.386719 24.136719 C 12.988281 23.84375 12.640625 23.355469 12.105469 23.339844 C 11.652344 23.230469 11.28125 23.53125 11.113281 23.925781 Z M 11.113281 23.925781 "/>
<path style=" stroke:none;fill-rule:nonzero;fill:rgb(4.313725%,14.901961%,39.607843%);fill-opacity:1;" d="M 38.847656 19.355469 C 39.402344 19.285156 39.960938 19.25 40.515625 19.253906 C 40.660156 21.175781 40.589844 23.097656 40.613281 25.019531 C 40.59375 26.144531 40.65625 27.28125 40.472656 28.394531 C 39.929688 28.371094 39.390625 28.367188 38.851562 28.300781 C 38.839844 25.316406 38.847656 22.335938 38.847656 19.355469 Z M 38.847656 19.355469 "/>
<path style=" stroke:none;fill-rule:nonzero;fill:rgb(4.313725%,14.901961%,39.607843%);fill-opacity:1;" d="M 87.335938 19.578125 C 87.960938 19.5 88.769531 19.214844 89.195312 19.835938 C 89.207031 20.257812 89.347656 21.007812 88.785156 21.144531 C 88.335938 21.15625 87.726562 21.351562 87.386719 20.949219 C 87.242188 20.511719 87.316406 20.035156 87.335938 19.578125 Z M 87.335938 19.578125 "/>
<path style=" stroke:none;fill-rule:nonzero;fill:rgb(4.313725%,14.901961%,39.607843%);fill-opacity:1;" d="M 108.628906 19.648438 C 109.246094 19.394531 109.941406 19.378906 110.554688 19.660156 C 110.40625 20.097656 110.703125 20.820312 110.207031 21.089844 C 109.6875 21.285156 109.113281 21.144531 108.621094 20.945312 C 108.621094 20.511719 108.625 20.082031 108.628906 19.648438 Z M 108.628906 19.648438 "/>
<path style=" stroke:none;fill-rule:nonzero;fill:rgb(4.313725%,14.901961%,39.607843%);fill-opacity:1;" d="M 25.882812 19.929688 C 27.863281 19.886719 29.84375 19.878906 31.824219 19.890625 C 32.003906 19.898438 32.238281 19.886719 32.3125 20.089844 C 32.476562 20.503906 32.363281 20.964844 32.277344 21.382812 C 31.507812 21.378906 30.734375 21.375 29.96875 21.375 C 29.964844 23.683594 29.96875 25.992188 29.964844 28.300781 C 29.378906 28.324219 28.792969 28.367188 28.210938 28.3125 C 28.195312 26.011719 28.234375 23.710938 28.1875 21.410156 C 27.421875 21.382812 26.660156 21.371094 25.894531 21.34375 C 25.890625 20.871094 25.882812 20.402344 25.882812 19.929688 Z M 25.882812 19.929688 "/>
<path style=" stroke:none;fill-rule:nonzero;fill:rgb(4.313725%,14.901961%,39.607843%);fill-opacity:1;" d="M 17 22.964844 C 18.121094 21.402344 20.769531 21.492188 21.828125 23.074219 C 22.109375 23.714844 22.21875 24.421875 22.160156 25.121094 C 22.125 25.472656 21.714844 25.710938 21.378906 25.597656 C 20.242188 25.644531 19.105469 25.605469 17.96875 25.621094 C 18.152344 26.175781 18.296875 26.898438 18.914062 27.121094 C 19.890625 27.523438 20.898438 27.078125 21.851562 26.863281 C 21.855469 27.304688 21.863281 27.753906 21.867188 28.199219 C 20.855469 28.484375 19.804688 28.644531 18.753906 28.546875 C 17.589844 28.40625 16.507812 27.425781 16.488281 26.199219 C 16.398438 25.109375 16.300781 23.898438 17 22.964844 M 19.074219 22.996094 C 18.441406 23.140625 18.164062 23.851562 17.953125 24.402344 C 18.804688 24.421875 19.65625 24.425781 20.503906 24.429688 C 20.476562 24.082031 20.441406 23.742188 20.410156 23.398438 C 19.992188 23.195312 19.582031 22.808594 19.074219 22.996094 Z M 19.074219 22.996094 "/>
<path style=" stroke:none;fill-rule:nonzero;fill:rgb(4.313725%,14.901961%,39.607843%);fill-opacity:1;" d="M 32.828125 22.480469 C 34.15625 21.464844 36.492188 21.648438 37.246094 23.273438 C 37.507812 24.023438 37.460938 24.839844 37.359375 25.617188 C 36.042969 25.609375 34.722656 25.609375 33.40625 25.613281 C 33.4375 26.082031 33.488281 26.652344 33.929688 26.925781 C 34.847656 27.609375 36.078125 27.191406 37.046875 26.875 C 37.144531 26.957031 37.238281 27.042969 37.335938 27.128906 C 37.226562 27.460938 37.402344 28.074219 36.984375 28.25 C 36.140625 28.535156 35.234375 28.574219 34.355469 28.570312 C 33.425781 28.515625 32.464844 28.035156 32.058594 27.15625 C 31.71875 26.335938 31.679688 25.417969 31.746094 24.539062 C 31.910156 23.78125 32.160156 22.941406 32.828125 22.480469 M 33.941406 23.222656 C 33.625 23.539062 33.503906 23.992188 33.351562 24.402344 C 34.21875 24.421875 35.078125 24.425781 35.941406 24.425781 C 35.8125 24.015625 35.824219 23.507812 35.445312 23.234375 C 35.039062 22.847656 34.359375 22.875 33.941406 23.222656 Z M 33.941406 23.222656 "/>
<path style=" stroke:none;fill-rule:nonzero;fill:rgb(4.313725%,14.901961%,39.607843%);fill-opacity:1;" d="M 42.472656 22.964844 C 43.59375 21.402344 46.242188 21.492188 47.304688 23.074219 C 47.585938 23.714844 47.691406 24.421875 47.636719 25.121094 C 47.605469 25.472656 47.1875 25.710938 46.851562 25.597656 C 45.714844 25.644531 44.582031 25.605469 43.441406 25.621094 C 43.625 26.175781 43.773438 26.898438 44.390625 27.121094 C 45.371094 27.523438 46.371094 27.078125 47.332031 26.863281 C 47.335938 27.304688 47.339844 27.753906 47.34375 28.199219 C 46.335938 28.484375 45.277344 28.644531 44.226562 28.546875 C 43.070312 28.40625 41.980469 27.425781 41.964844 26.199219 C 41.871094 25.109375 41.78125 23.898438 42.472656 22.964844 M 44.550781 22.996094 C 43.914062 23.140625 43.636719 23.851562 43.425781 24.402344 C 44.28125 24.421875 45.128906 24.425781 45.984375 24.429688 C 45.949219 24.082031 45.914062 23.742188 45.886719 23.398438 C 45.464844 23.195312 45.058594 22.808594 44.550781 22.996094 Z M 44.550781 22.996094 "/>
<path style=" stroke:none;fill-rule:nonzero;fill:rgb(4.313725%,14.901961%,39.607843%);fill-opacity:1;" d="M 49.992188 22.277344 C 50.628906 21.925781 51.386719 21.789062 52.105469 21.894531 C 52.644531 22.007812 53.09375 22.355469 53.542969 22.652344 C 53.503906 23.070312 53.441406 23.492188 53.3125 23.894531 C 52.722656 23.542969 52.113281 23.03125 51.378906 23.191406 C 50.332031 23.554688 50.246094 24.957031 50.40625 25.871094 C 50.566406 26.355469 50.863281 26.90625 51.390625 27.027344 C 52.148438 27.257812 52.785156 26.683594 53.410156 26.363281 C 53.402344 26.945312 53.714844 27.722656 53.140625 28.117188 C 52.015625 28.789062 50.40625 28.777344 49.445312 27.816406 C 48.703125 27.007812 48.714844 25.847656 48.710938 24.824219 C 48.730469 23.839844 49.160156 22.828125 49.992188 22.277344 Z M 49.992188 22.277344 "/>
<path style=" stroke:none;fill-rule:nonzero;fill:rgb(4.313725%,14.901961%,39.607843%);fill-opacity:1;" d="M 56.753906 21.914062 C 57.804688 21.769531 59.011719 21.886719 59.804688 22.683594 C 60.484375 23.355469 60.523438 24.402344 60.570312 25.300781 C 60.507812 26.1875 60.3125 27.152344 59.636719 27.78125 C 58.53125 28.699219 56.871094 28.820312 55.59375 28.203125 C 54.871094 27.785156 54.394531 26.996094 54.332031 26.15625 C 54.070312 24.796875 54.34375 23.015625 55.664062 22.300781 C 55.996094 22.105469 56.375 21.992188 56.753906 21.914062 M 57.054688 23.214844 C 55.933594 23.433594 55.894531 24.910156 56.035156 25.804688 C 55.976562 26.671875 56.808594 27.46875 57.667969 27.277344 C 58.480469 27.050781 58.953125 26.128906 58.863281 25.3125 C 58.863281 24.785156 58.847656 24.21875 58.542969 23.765625 C 58.265625 23.246094 57.605469 23.003906 57.054688 23.214844 Z M 57.054688 23.214844 "/>
<path style=" stroke:none;fill-rule:nonzero;fill:rgb(4.313725%,14.901961%,39.607843%);fill-opacity:1;" d="M 63.375 22.878906 C 63.898438 22.363281 64.523438 21.867188 65.304688 21.886719 C 66.066406 21.785156 66.71875 22.265625 67.15625 22.847656 C 67.621094 22.488281 68.066406 22.035156 68.660156 21.929688 C 69.386719 21.761719 70.292969 21.914062 70.730469 22.582031 C 71.226562 23.214844 71.167969 24.070312 71.242188 24.824219 C 71.246094 26.011719 71.367188 27.226562 71.132812 28.398438 C 70.585938 28.375 70.039062 28.367188 69.496094 28.300781 C 69.488281 26.941406 69.53125 25.585938 69.496094 24.226562 C 69.488281 23.875 69.308594 23.503906 68.972656 23.375 C 68.355469 23.1875 67.75 23.644531 67.5 24.171875 C 67.378906 25.546875 67.457031 26.925781 67.445312 28.304688 C 66.855469 28.324219 66.257812 28.378906 65.675781 28.257812 C 65.6875 26.910156 65.722656 25.570312 65.695312 24.222656 C 65.699219 23.875 65.511719 23.488281 65.164062 23.375 C 64.492188 23.175781 63.863281 23.703125 63.609375 24.28125 C 63.46875 25.613281 63.554688 26.957031 63.539062 28.296875 C 62.988281 28.320312 62.433594 28.351562 61.886719 28.3125 C 61.882812 26.242188 61.863281 24.167969 61.90625 22.09375 C 62.367188 22.089844 62.832031 22.078125 63.296875 22.082031 C 63.324219 22.347656 63.347656 22.613281 63.375 22.878906 Z M 63.375 22.878906 "/>
<path style=" stroke:none;fill-rule:nonzero;fill:rgb(4.313725%,14.901961%,39.607843%);fill-opacity:1;" d="M 81.605469 22.847656 C 82.160156 22.375 82.773438 21.84375 83.554688 21.875 C 84.574219 21.730469 85.539062 22.539062 85.695312 23.539062 C 85.894531 25.117188 85.773438 26.710938 85.792969 28.292969 C 85.25 28.324219 84.707031 28.355469 84.167969 28.359375 C 84.003906 26.769531 84.460938 25.082031 83.820312 23.5625 C 83.203125 23.070312 82.183594 23.4375 81.945312 24.171875 C 81.828125 25.496094 81.902344 26.828125 81.882812 28.152344 C 81.808594 28.21875 81.742188 28.289062 81.671875 28.359375 C 81.167969 28.351562 80.667969 28.34375 80.164062 28.335938 C 80.117188 26.257812 80.121094 24.171875 80.15625 22.09375 C 80.621094 22.089844 81.089844 22.082031 81.554688 22.082031 C 81.570312 22.335938 81.585938 22.589844 81.605469 22.847656 Z M 81.605469 22.847656 "/>
<path style=" stroke:none;fill-rule:nonzero;fill:rgb(4.313725%,14.901961%,39.607843%);fill-opacity:1;" d="M 91.871094 22.191406 C 92.648438 21.863281 93.582031 21.707031 94.386719 22.0625 C 94.652344 22.164062 95.03125 22.273438 95.125 22.589844 C 95.148438 23.023438 95.144531 23.464844 95.113281 23.898438 C 94.5 23.609375 93.949219 23.070312 93.226562 23.15625 C 92.441406 23.316406 92.121094 24.195312 92.144531 24.921875 C 92.070312 25.683594 92.207031 26.679688 93.015625 26.992188 C 93.804688 27.332031 94.527344 26.710938 95.183594 26.359375 C 95.027344 26.921875 95.441406 27.851562 94.804688 28.199219 C 93.613281 28.785156 91.902344 28.757812 91.046875 27.601562 C 90.367188 26.710938 90.453125 25.480469 90.480469 24.425781 C 90.558594 23.503906 91.101562 22.683594 91.871094 22.191406 Z M 91.871094 22.191406 "/>
<path style=" stroke:none;fill-rule:nonzero;fill:rgb(4.313725%,14.901961%,39.607843%);fill-opacity:1;" d="M 97.871094 21.949219 C 98.589844 21.886719 99.371094 21.722656 100.058594 22.039062 C 100.664062 22.203125 101.207031 22.738281 101.265625 23.386719 C 101.382812 25.03125 101.3125 26.683594 101.285156 28.332031 C 100.863281 28.34375 100.449219 28.359375 100.035156 28.375 C 99.992188 28.203125 99.949219 28.039062 99.910156 27.867188 C 99.386719 28.195312 98.835938 28.566406 98.1875 28.554688 C 97.472656 28.640625 96.722656 28.3125 96.273438 27.746094 C 95.980469 27.332031 96.070312 26.773438 96.03125 26.296875 C 96.003906 25.695312 96.507812 25.246094 97 25 C 97.886719 24.59375 98.882812 24.652344 99.828125 24.597656 C 99.773438 24.085938 99.664062 23.40625 99.105469 23.210938 C 98.226562 23.015625 97.394531 23.382812 96.574219 23.644531 C 96.480469 23.5625 96.378906 23.484375 96.28125 23.40625 C 96.359375 23.0625 96.257812 22.566406 96.605469 22.339844 C 96.980469 22.089844 97.441406 22.035156 97.871094 21.949219 M 97.945312 25.859375 C 97.441406 26.171875 97.539062 26.984375 97.960938 27.320312 C 98.476562 27.511719 99.140625 27.363281 99.488281 26.914062 C 99.863281 26.585938 99.695312 26.011719 99.808594 25.585938 C 99.1875 25.648438 98.515625 25.570312 97.945312 25.859375 Z M 97.945312 25.859375 "/>
<path style=" stroke:none;fill-rule:nonzero;fill:rgb(4.313725%,14.901961%,39.607843%);fill-opacity:1;" d="M 104.03125 22.246094 C 104.96875 21.765625 106.171875 21.679688 107.085938 22.257812 C 107.589844 22.660156 107.453125 23.335938 107.386719 23.902344 C 106.808594 23.613281 106.292969 23.125 105.605469 23.15625 C 105.066406 23.164062 104.625 23.605469 104.53125 24.128906 C 104.414062 24.914062 104.292969 25.804688 104.699219 26.53125 C 104.933594 26.992188 105.523438 27.121094 105.996094 27.066406 C 106.507812 26.945312 106.941406 26.613281 107.410156 26.382812 C 107.550781 27.023438 107.761719 27.84375 107.046875 28.234375 C 105.9375 28.691406 104.472656 28.78125 103.546875 27.890625 C 102.644531 27.035156 102.644531 25.6875 102.703125 24.539062 C 102.820312 23.644531 103.265625 22.746094 104.03125 22.246094 Z M 104.03125 22.246094 "/>
<path style=" stroke:none;fill-rule:nonzero;fill:rgb(4.313725%,14.901961%,39.607843%);fill-opacity:1;" d="M 114.242188 21.914062 C 115.457031 21.722656 116.925781 22.015625 117.605469 23.152344 C 118.207031 24.816406 118.226562 27.128906 116.5625 28.1875 C 115.359375 28.691406 113.832031 28.761719 112.722656 27.996094 C 112.058594 27.53125 111.820312 26.675781 111.765625 25.90625 C 111.71875 25.054688 111.644531 24.152344 112.09375 23.382812 C 112.441406 22.511719 113.371094 22.054688 114.242188 21.914062 M 114.445312 23.214844 C 114.175781 23.285156 113.882812 23.410156 113.753906 23.671875 C 113.273438 24.519531 113.214844 25.605469 113.617188 26.484375 C 113.867188 27.046875 114.523438 27.449219 115.132812 27.234375 C 115.75 27.109375 116.183594 26.507812 116.222656 25.886719 C 116.230469 25.179688 116.363281 24.371094 115.949219 23.738281 C 115.652344 23.234375 114.992188 23.015625 114.445312 23.214844 Z M 114.445312 23.214844 "/>
<path style=" stroke:none;fill-rule:nonzero;fill:rgb(4.313725%,14.901961%,39.607843%);fill-opacity:1;" d="M 120.78125 22.792969 C 121.355469 22.375 121.945312 21.871094 122.695312 21.878906 C 123.851562 21.675781 124.953125 22.789062 124.917969 23.9375 C 124.976562 25.402344 124.949219 26.878906 124.914062 28.34375 C 124.363281 28.34375 123.824219 28.367188 123.28125 28.308594 C 123.265625 26.949219 123.335938 25.597656 123.242188 24.242188 C 123.136719 23.917969 123.039062 23.46875 122.65625 23.378906 C 122.007812 23.191406 121.371094 23.613281 121.085938 24.175781 C 120.964844 25.546875 121.042969 26.925781 121.03125 28.304688 C 120.4375 28.324219 119.84375 28.378906 119.261719 28.257812 C 119.28125 26.269531 119.265625 24.273438 119.289062 22.285156 C 119.355469 22.214844 119.425781 22.148438 119.492188 22.078125 C 119.871094 22.074219 120.253906 22.070312 120.636719 22.0625 C 120.6875 22.308594 120.734375 22.546875 120.78125 22.792969 Z M 120.78125 22.792969 "/>
<path style=" stroke:none;fill-rule:nonzero;fill:rgb(4.313725%,14.901961%,39.607843%);fill-opacity:1;" d="M 127.035156 22.707031 C 128.210938 21.550781 130.425781 21.515625 131.480469 22.84375 C 131.992188 23.574219 132.011719 24.53125 132.121094 25.378906 C 130.746094 25.773438 129.292969 25.574219 127.886719 25.617188 C 127.980469 26.121094 128.039062 26.808594 128.585938 27.050781 C 129.546875 27.535156 130.632812 27.101562 131.621094 26.890625 C 131.636719 27.324219 131.660156 27.761719 131.683594 28.195312 C 130.1875 28.589844 128.398438 28.941406 127.101562 27.859375 C 126.46875 27.34375 126.339844 26.523438 126.273438 25.761719 C 126.199219 24.703125 126.339844 23.546875 127.035156 22.707031 M 128.8125 23.015625 C 128.226562 23.207031 127.992188 23.863281 127.859375 24.410156 C 128.726562 24.421875 129.601562 24.425781 130.476562 24.417969 C 130.347656 24.070312 130.277344 23.683594 130.074219 23.371094 C 129.773438 23.015625 129.261719 22.824219 128.8125 23.015625 Z M 128.8125 23.015625 "/>
<path style=" stroke:none;fill-rule:nonzero;fill:rgb(4.313725%,14.901961%,39.607843%);fill-opacity:1;" d="M 133.785156 22.320312 C 134.75 21.738281 136.054688 21.675781 137.023438 22.28125 C 137.304688 22.605469 137.171875 23.089844 137.199219 23.492188 C 136.566406 23.296875 135.964844 22.949219 135.285156 22.949219 C 134.890625 23.011719 134.554688 23.410156 134.597656 23.816406 C 135.175781 24.484375 136.132812 24.535156 136.808594 25.0625 C 137.867188 25.671875 137.699219 27.355469 136.835938 28.0625 C 135.757812 28.710938 134.339844 28.714844 133.210938 28.183594 C 132.929688 27.832031 133.09375 27.28125 133.101562 26.851562 C 133.785156 27.160156 134.488281 27.496094 135.269531 27.367188 C 135.679688 27.347656 136.019531 26.929688 135.957031 26.523438 C 135.4375 25.773438 134.460938 25.765625 133.785156 25.234375 C 132.761719 24.632812 132.808594 22.941406 133.785156 22.320312 Z M 133.785156 22.320312 "/>
<path style=" stroke:none;fill-rule:nonzero;fill:rgb(4.313725%,14.901961%,39.607843%);fill-opacity:1;" d="M 72.878906 22.066406 C 73.246094 22.066406 73.984375 22.074219 74.351562 22.078125 C 74.421875 22.148438 74.492188 22.214844 74.558594 22.285156 C 74.574219 23.589844 74.535156 24.898438 74.578125 26.207031 C 74.589844 26.746094 75.164062 27.230469 75.699219 27.027344 C 76.140625 26.890625 76.550781 26.578125 76.761719 26.160156 C 76.878906 24.804688 76.800781 23.445312 76.84375 22.085938 C 77.382812 22.085938 77.929688 22.066406 78.476562 22.125 C 78.480469 24.179688 78.480469 26.242188 78.476562 28.296875 C 77.988281 28.308594 77.503906 28.316406 77.023438 28.3125 C 77.015625 28.121094 77 27.746094 76.992188 27.554688 C 76.300781 28.3125 75.257812 28.832031 74.226562 28.453125 C 73.375 28.25 72.914062 27.359375 72.871094 26.53125 C 72.769531 25.046875 72.773438 23.546875 72.878906 22.066406 Z M 72.878906 22.066406 "/>
<path style=" stroke:none;fill-rule:nonzero;fill:rgb(4.313725%,14.901961%,39.607843%);fill-opacity:1;" d="M 87.355469 22.128906 C 87.949219 22.109375 88.546875 22.054688 89.125 22.175781 C 89.109375 24.160156 89.121094 26.15625 89.101562 28.144531 C 89.03125 28.21875 88.964844 28.296875 88.894531 28.375 C 88.378906 28.359375 87.871094 28.363281 87.359375 28.304688 C 87.351562 26.246094 87.355469 24.183594 87.355469 22.128906 Z M 87.355469 22.128906 "/>
<path style=" stroke:none;fill-rule:nonzero;fill:rgb(4.313725%,14.901961%,39.607843%);fill-opacity:1;" d="M 108.628906 22.191406 C 109.25 22.117188 109.886719 22.042969 110.5 22.1875 C 110.484375 24.171875 110.5 26.160156 110.480469 28.148438 C 110.410156 28.214844 110.339844 28.285156 110.269531 28.355469 C 109.917969 28.355469 109.210938 28.355469 108.855469 28.355469 C 108.785156 28.285156 108.714844 28.214844 108.644531 28.148438 C 108.628906 26.164062 108.636719 24.171875 108.628906 22.191406 Z M 108.628906 22.191406 "/>
<path style=" stroke:none;fill-rule:nonzero;fill:rgb(4.313725%,14.901961%,39.607843%);fill-opacity:1;" d="M 79.34375 39.1875 C 81.054688 38.507812 83.042969 38.402344 84.738281 39.171875 C 85.15625 39.378906 85.628906 39.597656 85.847656 40.035156 C 85.941406 40.828125 85.925781 41.648438 85.730469 42.429688 C 85.023438 42.101562 84.425781 41.554688 83.671875 41.324219 C 82.851562 41.0625 81.945312 40.980469 81.125 41.269531 C 80.261719 41.5625 79.609375 42.292969 79.234375 43.113281 C 78.65625 44.378906 78.628906 45.824219 78.757812 47.1875 C 78.820312 48.230469 79.261719 49.246094 79.972656 50.007812 C 80.84375 50.875 82.175781 50.941406 83.324219 50.785156 C 84.222656 50.578125 84.976562 50.019531 85.820312 49.667969 C 85.9375 50.207031 85.984375 50.761719 85.988281 51.316406 C 85.957031 51.71875 85.875 52.183594 85.488281 52.390625 C 84.074219 53.253906 82.34375 53.476562 80.722656 53.273438 C 79.382812 53.089844 78.074219 52.484375 77.191406 51.429688 C 76.371094 50.460938 75.859375 49.234375 75.730469 47.964844 C 75.398438 45.808594 75.578125 43.46875 76.714844 41.558594 C 77.277344 40.492188 78.25 39.667969 79.34375 39.1875 Z M 79.34375 39.1875 "/>
<path style=" stroke:none;fill-rule:nonzero;fill:rgb(4.313725%,14.901961%,39.607843%);fill-opacity:1;" d="M 61.914062 38.9375 C 62.765625 38.714844 63.660156 38.847656 64.515625 38.980469 C 64.523438 41.453125 64.515625 43.921875 64.507812 46.394531 C 64.53125 47.429688 64.472656 48.515625 64.871094 49.5 C 65.601562 50.914062 67.570312 51.445312 68.925781 50.644531 C 70.035156 50.105469 70.386719 48.722656 70.371094 47.578125 C 70.394531 44.710938 70.359375 41.847656 70.375 38.984375 C 71.3125 38.816406 72.296875 38.695312 73.214844 39.042969 C 73.179688 42.019531 73.238281 44.996094 73.195312 47.96875 C 73.105469 49.007812 72.984375 50.105469 72.402344 50.996094 C 71.707031 52.121094 70.511719 52.914062 69.222656 53.144531 C 67.867188 53.464844 66.449219 53.429688 65.101562 53.078125 C 63.480469 52.660156 62.121094 51.265625 61.851562 49.578125 C 61.367188 46.605469 61.679688 43.578125 61.574219 40.578125 C 61.648438 40.058594 61.398438 39.300781 61.914062 38.9375 Z M 61.914062 38.9375 "/>
</g>
</svg>
